<svg width="14" height="16" viewBox="0 0 14 16" fill="none" xmlns="http://www.w3.org/2000/svg">
<path d="M7 0.5C7.68482 1.29505 8.44015 2.0334 9.25693 2.70647C8.71269 4.37972 8.41969 6.15743 8.41969 8C8.41969 9.84257 8.71269 11.6203 9.25693 13.2935C8.44015 13.9666 7.68482 14.7049 7 15.5C6.31518 14.7049 5.55985 13.9666 4.74306 13.2935C5.28731 11.6203 5.58031 9.84257 5.58031 8C5.58031 6.15743 5.28731 4.37973 4.74306 2.70647C5.55985 2.0334 6.31518 1.29505 7 0.5Z" fill="white"/>
<path d="M3.18186 12.1367C2.31728 11.5623 1.39972 11.0546 0.437501 10.6217C0.704415 9.79237 0.848001 8.91208 0.848001 8C0.848001 7.08792 0.704414 6.20763 0.4375 5.37833C1.39972 4.94537 2.31728 4.43773 3.18186 3.86332C3.51246 5.19131 3.68738 6.57629 3.68738 8C3.68738 9.42371 3.51246 10.8087 3.18186 12.1367Z" fill="white"/>
<path d="M10.3126 8C10.3126 9.42371 10.4875 10.8087 10.8181 12.1367C11.6827 11.5623 12.6003 11.0546 13.5625 10.6217C13.2956 9.79237 13.152 8.91208 13.152 8C13.152 7.08792 13.2956 6.20763 13.5625 5.37833C12.6003 4.94537 11.6827 4.43773 10.8181 3.86331C10.4875 5.19131 10.3126 6.57629 10.3126 8Z" fill="white"/>
</svg>
