<svg width="28" height="32" viewBox="0 0 28 32" fill="none" xmlns="http://www.w3.org/2000/svg">
<path d="M14 -3.05176e-05C15.461 1.69608 17.0723 3.27122 18.8148 4.7071C17.6537 8.27671 17.0287 12.0691 17.0287 16C17.0287 19.9308 17.6537 23.7232 18.8148 27.2928C17.0723 28.7287 15.461 30.3039 14 32C12.539 30.3039 10.9277 28.7287 9.1852 27.2928C10.3463 23.7232 10.9713 19.9308 10.9713 16C10.9713 12.0692 10.3463 8.27672 9.1852 4.7071C10.9277 3.27123 12.539 1.69609 14 -3.05176e-05Z" fill="#6851FF"/>
<path d="M5.85464 24.8249C4.01021 23.5995 2.05274 22.5165 2.90743e-06 21.5929C0.569419 19.8237 0.875735 17.9457 0.875735 16C0.875735 14.0542 0.569417 12.1763 0 10.4071C2.05273 9.48342 4.0102 8.40046 5.85464 7.17505C6.55991 10.0081 6.93309 12.9627 6.93309 16C6.93309 19.0372 6.55991 21.9918 5.85464 24.8249Z" fill="#6851FF"/>
<path d="M21.0669 16C21.0669 19.0372 21.4401 21.9918 22.1454 24.8249C23.9898 23.5995 25.9473 22.5165 28 21.5929C27.4306 19.8237 27.1243 17.9457 27.1243 16C27.1243 14.0542 27.4306 12.1763 28 10.4071C25.9473 9.48342 23.9898 8.40046 22.1454 7.17504C21.4401 10.0081 21.0669 12.9627 21.0669 16Z" fill="#6851FF"/>
</svg>
