<svg width="88" height="64" viewBox="0 0 88 64" fill="none" xmlns="http://www.w3.org/2000/svg">
<g clip-path="url(#clip0_12389_62148)">
<path d="M71.8596 1H8.70349C3.89669 1 0 4.89668 0 9.70348V47.4187C0 52.2255 3.8967 56.1222 8.7035 56.1222H40.2816H71.8596C76.6664 56.1222 80.5631 52.2255 80.5631 47.4187V33.1546V9.70349C80.5631 4.89669 76.6664 1 71.8596 1Z" fill="url(#paint0_linear_12389_62148)"/>
<path d="M79.3396 8H16.1835C11.3767 8 7.47998 11.8967 7.47998 16.7035V54.4187C7.47998 59.2255 11.3767 63.1222 16.1835 63.1222H47.7615H79.3396C84.1464 63.1222 88.0431 59.2255 88.0431 54.4187V40.1546V16.7035C88.0431 11.8967 84.1464 8 79.3396 8Z" fill="url(#paint1_linear_12389_62148)"/>
<g filter="url(#filter0_d_12389_62148)">
<path d="M28.6807 23.3786V23.3786C28.6807 22.3105 29.2436 21.3145 30.1895 20.8186C35.5309 18.0183 41.4735 16.5272 47.5239 16.4809C53.4775 16.4352 59.3483 17.7899 64.6643 20.423C65.7793 20.9753 66.4446 22.1343 66.4446 23.3786V23.3786C66.4561 30.0008 64.7211 36.5096 61.414 42.2513C58.8638 46.6788 55.448 50.9292 51.3858 54.1673C49.1644 55.938 46.04 55.9419 43.8143 54.1767C39.7383 50.9441 36.3088 46.6948 33.7464 42.2653C30.4246 36.5228 28.6774 30.0088 28.6807 23.3786Z" fill="url(#paint2_radial_12389_62148)"/>
</g>
<path d="M48.1589 24.5625C49.0058 25.5458 49.94 26.4589 50.9501 27.2913C50.277 29.3606 49.9147 31.5591 49.9147 33.8379C49.9147 36.1166 50.277 38.3151 50.9501 40.3845C49.94 41.2168 49.0058 42.13 48.1589 43.1132C47.312 42.13 46.3779 41.2168 45.3677 40.3844C46.0408 38.3151 46.4032 36.1166 46.4032 33.8379C46.4032 31.5591 46.0408 29.3606 45.3677 27.2913C46.3779 26.4589 47.312 25.5458 48.1589 24.5625Z" fill="#6851FF"/>
<path d="M48.1589 24.5625C49.0058 25.5458 49.94 26.4589 50.9501 27.2913C50.277 29.3606 49.9147 31.5591 49.9147 33.8379C49.9147 36.1166 50.277 38.3151 50.9501 40.3845C49.94 41.2168 49.0058 42.13 48.1589 43.1132C47.312 42.13 46.3779 41.2168 45.3677 40.3844C46.0408 38.3151 46.4032 36.1166 46.4032 33.8379C46.4032 31.5591 46.0408 29.3606 45.3677 27.2913C46.3779 26.4589 47.312 25.5458 48.1589 24.5625Z" fill="url(#paint3_linear_12389_62148)"/>
<path d="M43.437 38.9538C42.3677 38.2434 41.233 37.6156 40.043 37.0801C40.3731 36.0545 40.5506 34.9658 40.5506 33.8379C40.5506 32.7099 40.3731 31.6212 40.043 30.5956C41.233 30.0602 42.3677 29.4323 43.437 28.722C43.8458 30.3643 44.0621 32.0771 44.0621 33.8379C44.0621 35.5986 43.8458 37.3114 43.437 38.9538Z" fill="#6851FF"/>
<path d="M43.437 38.9538C42.3677 38.2434 41.233 37.6156 40.043 37.0801C40.3731 36.0545 40.5506 34.9658 40.5506 33.8379C40.5506 32.7099 40.3731 31.6212 40.043 30.5956C41.233 30.0602 42.3677 29.4323 43.437 28.722C43.8458 30.3643 44.0621 32.0771 44.0621 33.8379C44.0621 35.5986 43.8458 37.3114 43.437 38.9538Z" fill="url(#paint4_linear_12389_62148)"/>
<path d="M52.2557 33.8379C52.2557 35.5986 52.472 37.3114 52.8809 38.9538C53.9501 38.2434 55.0849 37.6156 56.2748 37.0801C55.9448 36.0545 55.7672 34.9658 55.7672 33.8379C55.7672 32.7099 55.9448 31.6212 56.2748 30.5956C55.0849 30.0602 53.9501 29.4323 52.8809 28.722C52.472 30.3643 52.2557 32.0771 52.2557 33.8379Z" fill="#6851FF"/>
<path d="M52.2557 33.8379C52.2557 35.5986 52.472 37.3114 52.8809 38.9538C53.9501 38.2434 55.0849 37.6156 56.2748 37.0801C55.9448 36.0545 55.7672 34.9658 55.7672 33.8379C55.7672 32.7099 55.9448 31.6212 56.2748 30.5956C55.0849 30.0602 53.9501 29.4323 52.8809 28.722C52.472 30.3643 52.2557 32.0771 52.2557 33.8379Z" fill="url(#paint5_linear_12389_62148)"/>
</g>
<defs>
<filter id="filter0_d_12389_62148" x="15.4302" y="7.20438" width="64.2652" height="65.5192" filterUnits="userSpaceOnUse" color-interpolation-filters="sRGB">
<feFlood flood-opacity="0" result="BackgroundImageFix"/>
<feColorMatrix in="SourceAlpha" type="matrix" values="0 0 0 0 0 0 0 0 0 0 0 0 0 0 0 0 0 0 127 0" result="hardAlpha"/>
<feOffset dy="3.97515"/>
<feGaussianBlur stdDeviation="6.62526"/>
<feComposite in2="hardAlpha" operator="out"/>
<feColorMatrix type="matrix" values="0 0 0 0 0.207843 0 0 0 0 0.0705882 0 0 0 0 0.698039 0 0 0 0.3 0"/>
<feBlend mode="normal" in2="BackgroundImageFix" result="effect1_dropShadow_12389_62148"/>
<feBlend mode="normal" in="SourceGraphic" in2="effect1_dropShadow_12389_62148" result="shape"/>
</filter>
<linearGradient id="paint0_linear_12389_62148" x1="40.2816" y1="1" x2="40.2816" y2="56.1222" gradientUnits="userSpaceOnUse">
<stop stop-color="#9888FF"/>
<stop offset="1" stop-color="#522FD4"/>
</linearGradient>
<linearGradient id="paint1_linear_12389_62148" x1="47.7615" y1="8" x2="47.7615" y2="63.1222" gradientUnits="userSpaceOnUse">
<stop stop-color="#D9D3FF"/>
<stop offset="1" stop-color="#A799FF"/>
</linearGradient>
<radialGradient id="paint2_radial_12389_62148" cx="0" cy="0" r="1" gradientUnits="userSpaceOnUse" gradientTransform="translate(38.796 25.8788) rotate(74.1523) scale(32.1027 30.0764)">
<stop stop-color="#B3A7FF"/>
<stop offset="1" stop-color="#503BD9"/>
</radialGradient>
<linearGradient id="paint3_linear_12389_62148" x1="52.2169" y1="33.8379" x2="43.6281" y2="42.8561" gradientUnits="userSpaceOnUse">
<stop stop-color="white"/>
<stop offset="1" stop-color="#D5CEFF"/>
</linearGradient>
<linearGradient id="paint4_linear_12389_62148" x1="52.2169" y1="33.8379" x2="43.6281" y2="42.8561" gradientUnits="userSpaceOnUse">
<stop stop-color="white"/>
<stop offset="1" stop-color="#D5CEFF"/>
</linearGradient>
<linearGradient id="paint5_linear_12389_62148" x1="52.2169" y1="33.8379" x2="43.6281" y2="42.8561" gradientUnits="userSpaceOnUse">
<stop stop-color="white"/>
<stop offset="1" stop-color="#D5CEFF"/>
</linearGradient>
<clipPath id="clip0_12389_62148">
<rect width="88" height="64" fill="white"/>
</clipPath>
</defs>
</svg>
