<svg width="304" height="304" viewBox="0 0 304 304" fill="none" xmlns="http://www.w3.org/2000/svg">
    <rect width="304" height="304" rx="16" fill="#A799FF" fill-opacity=".08"/>
    <g opacity=".7" filter="url(#a)">
        <path d="m145.598 92.117-18.05 9.624c-4.09 2.178-7.437 7.64-7.437 12.126v18.369c0 4.487 3.347 9.948 7.437 12.127l18.05 9.655c3.854 2.049 10.175 2.049 14.028 0l18.051-9.655c4.09-2.179 7.436-7.64 7.436-12.127v-18.369c0-4.486-3.346-9.948-7.436-12.126l-18.051-9.656c-3.887-2.048-10.174-2.048-14.028.032Z" fill="url(#b)"/>
        <path d="m142.614 78.969-25.722 13.713c-5.828 3.104-10.597 10.888-10.597 17.281v26.176c0 6.393 4.769 14.177 10.597 17.281l25.722 13.76c5.492 2.918 14.499 2.918 19.991 0l25.722-13.76c5.828-3.104 10.597-10.888 10.597-17.281v-26.176c0-6.393-4.769-14.177-10.597-17.28l-25.722-13.76c-5.54-2.92-14.499-2.92-19.991.046Z" stroke="url(#c)" stroke-width="7.389" stroke-linecap="round" stroke-linejoin="round"/>
        <path fill-rule="evenodd" clip-rule="evenodd" d="M201.337 101.912a3.694 3.694 0 1 0-3.581-6.463l-45.11 24.996-43.9-24.975a3.694 3.694 0 1 0-3.654 6.422l43.835 24.938v44.976a3.694 3.694 0 1 0 7.389 0v-44.948l45.021-24.946Z" fill="url(#d)"/>
        <circle cx="106.298" cy="99.896" r="10.969" fill="url(#e)"/>
        <circle cx="198.924" cy="99.896" r="10.969" fill="url(#f)"/>
        <circle cx="152.613" cy="74.302" r="10.969" fill="url(#g)"/>
        <circle cx="152.613" cy="170.587" r="10.969" fill="url(#h)"/>
        <circle cx="106.298" cy="144.992" r="10.969" fill="url(#i)"/>
        <circle cx="198.924" cy="144.992" r="10.969" fill="url(#j)"/>
    </g>
    <path opacity=".5" d="M97.02 216.798v13.091h-1.814l-6.655-9.601h-.121v9.601h-1.975v-13.091h1.828l6.66 9.614h.122v-9.614h1.956Zm6.864 13.289c-.92 0-1.723-.211-2.409-.633a4.266 4.266 0 0 1-1.599-1.77c-.379-.759-.568-1.645-.568-2.659 0-1.019.19-1.91.568-2.672.38-.763.912-1.355 1.599-1.777.686-.422 1.489-.633 2.409-.633.921 0 1.724.211 2.41.633a4.257 4.257 0 0 1 1.598 1.777c.379.762.569 1.653.569 2.672 0 1.014-.19 1.9-.569 2.659a4.268 4.268 0 0 1-1.598 1.77c-.686.422-1.489.633-2.41.633Zm.007-1.604c.596 0 1.091-.158 1.483-.473.392-.316.681-.735.869-1.26a5 5 0 0 0 .288-1.732c0-.626-.096-1.202-.288-1.726-.188-.528-.477-.952-.869-1.272-.392-.319-.887-.479-1.483-.479-.601 0-1.1.16-1.496.479-.392.32-.684.744-.876 1.272a5.105 5.105 0 0 0-.281 1.726c0 .631.094 1.208.281 1.732.192.525.484.944.876 1.26.396.315.895.473 1.496.473Zm11.467 1.406v-9.818h1.911v9.818h-1.911Zm.965-11.333c-.332 0-.618-.111-.856-.333a1.077 1.077 0 0 1-.352-.805c0-.315.117-.584.352-.805a1.2 1.2 0 0 1 .856-.339c.333 0 .616.113.85.339.239.221.358.49.358.805 0 .311-.119.58-.358.805a1.19 1.19 0 0 1-.85.333Zm3.517 11.333v-9.818h1.835v1.598h.121a2.54 2.54 0 0 1 1.004-1.266c.464-.307 1.021-.46 1.668-.46.657 0 1.206.153 1.649.46.448.307.778.729.991 1.266h.102a2.77 2.77 0 0 1 1.119-1.253c.511-.315 1.121-.473 1.828-.473.891 0 1.617.279 2.18.837.567.558.85 1.4.85 2.525v6.584h-1.911v-6.405c0-.665-.181-1.146-.543-1.445a1.98 1.98 0 0 0-1.298-.447c-.622 0-1.106.192-1.451.575-.345.38-.518.868-.518 1.464v6.258h-1.905v-6.526c0-.533-.166-.961-.498-1.285-.333-.324-.765-.486-1.298-.486-.362 0-.697.096-1.003.288a2.096 2.096 0 0 0-.735.786c-.184.337-.275.726-.275 1.17v6.053h-1.912Zm18.766.217a4.014 4.014 0 0 1-1.688-.345 2.845 2.845 0 0 1-1.195-1.016c-.29-.443-.435-.987-.435-1.63 0-.554.107-1.01.32-1.368a2.36 2.36 0 0 1 .863-.85 4.483 4.483 0 0 1 1.214-.473c.448-.107.904-.188 1.368-.243l1.432-.166c.367-.047.633-.122.799-.224.166-.102.249-.269.249-.499v-.044c0-.559-.157-.991-.473-1.298-.311-.307-.775-.46-1.393-.46-.643 0-1.151.143-1.521.428-.367.281-.62.594-.761.94l-1.796-.409c.213-.597.524-1.079.933-1.445a3.777 3.777 0 0 1 1.426-.805 5.54 5.54 0 0 1 1.693-.256c.392 0 .808.047 1.247.141a3.64 3.64 0 0 1 1.24.498c.388.243.705.59.952 1.042.248.447.371 1.029.371 1.745v6.52h-1.866v-1.342h-.077c-.124.247-.309.49-.556.728a2.954 2.954 0 0 1-.953.595c-.387.157-.852.236-1.393.236Zm.415-1.534c.529 0 .981-.104 1.356-.313.379-.209.666-.482.862-.818.201-.341.301-.705.301-1.093v-1.266c-.068.068-.2.132-.396.192a6.4 6.4 0 0 1-.659.147l-.722.109a56.2 56.2 0 0 0-.588.076c-.371.047-.71.126-1.017.237-.302.111-.545.27-.728.479-.179.205-.269.477-.269.818 0 .473.175.831.524 1.074.35.239.795.358 1.336.358Zm11.092 5.203c-.78 0-1.451-.102-2.013-.307-.559-.204-1.015-.475-1.368-.811a3.42 3.42 0 0 1-.793-1.106l1.643-.678c.115.188.268.386.46.595.196.213.46.394.793.543.336.149.769.224 1.297.224.725 0 1.324-.177 1.797-.531.473-.349.709-.907.709-1.674v-1.931h-.121a4.386 4.386 0 0 1-.499.697c-.213.256-.507.477-.882.665-.375.187-.863.281-1.464.281-.775 0-1.474-.181-2.096-.543-.618-.367-1.108-.906-1.471-1.618-.358-.716-.537-1.595-.537-2.64 0-1.044.177-1.938.531-2.684.358-.746.848-1.317 1.47-1.713.622-.401 1.328-.601 2.116-.601.609 0 1.101.102 1.476.307.375.2.667.434.876.703.213.268.377.505.492.709h.141v-1.591h1.873v10.035c0 .844-.196 1.536-.588 2.078-.392.541-.923.941-1.592 1.201-.665.26-1.415.39-2.25.39Zm-.019-5.618c.55 0 1.014-.128 1.393-.384.384-.26.674-.631.87-1.112.2-.486.3-1.068.3-1.745 0-.661-.098-1.242-.294-1.745-.196-.503-.483-.895-.863-1.176-.379-.286-.848-.429-1.406-.429-.575 0-1.055.15-1.438.448-.384.294-.673.695-.87 1.202a4.789 4.789 0 0 0-.287 1.7c0 .643.098 1.208.294 1.694.196.486.486.865.869 1.138.388.272.865.409 1.432.409Zm11.244 1.93c-.968 0-1.801-.207-2.5-.62a4.21 4.21 0 0 1-1.61-1.758c-.375-.758-.563-1.647-.563-2.665 0-1.006.188-1.892.563-2.659.379-.767.907-1.366 1.585-1.797.682-.43 1.478-.645 2.39-.645.554 0 1.091.092 1.611.275.52.183.987.471 1.4.863.413.392.739.901.978 1.527.239.623.358 1.379.358 2.27v.677h-7.805v-1.432h5.932c0-.503-.102-.948-.307-1.336a2.307 2.307 0 0 0-.863-.926c-.366-.226-.797-.339-1.291-.339-.537 0-1.006.132-1.406.396a2.67 2.67 0 0 0-.921 1.023 2.949 2.949 0 0 0-.319 1.361v1.119c0 .656.115 1.214.345 1.675.234.46.56.811.978 1.054.418.239.906.358 1.464.358.362 0 .692-.051.991-.153.298-.107.556-.264.773-.473.217-.209.384-.467.499-.774l1.809.326c-.145.533-.405 1-.78 1.4a3.783 3.783 0 0 1-1.4.927c-.558.217-1.195.326-1.911.326Zm15.769-10.016v1.534h-5.548v-1.534h5.548Zm-4.027 9.818v-10.956c0-.614.134-1.123.403-1.528a2.465 2.465 0 0 1 1.067-.914 3.414 3.414 0 0 1 1.445-.307c.383 0 .711.032.984.096.273.06.475.115.607.166l-.447 1.547c-.09-.025-.205-.055-.345-.089a1.94 1.94 0 0 0-.512-.058c-.464 0-.797.115-.997.345-.196.231-.294.563-.294.998v10.7h-1.911Zm9.748.198c-.921 0-1.724-.211-2.41-.633a4.268 4.268 0 0 1-1.598-1.77c-.379-.759-.569-1.645-.569-2.659 0-1.019.19-1.91.569-2.672a4.257 4.257 0 0 1 1.598-1.777c.686-.422 1.489-.633 2.41-.633.92 0 1.723.211 2.409.633.687.422 1.219 1.014 1.598 1.777.38.762.569 1.653.569 2.672 0 1.014-.189 1.9-.569 2.659a4.262 4.262 0 0 1-1.598 1.77c-.686.422-1.489.633-2.409.633Zm.006-1.604c.597 0 1.091-.158 1.483-.473.392-.316.682-.735.869-1.26a5 5 0 0 0 .288-1.732c0-.626-.096-1.202-.288-1.726-.187-.528-.477-.952-.869-1.272-.392-.319-.886-.479-1.483-.479-.601 0-1.099.16-1.496.479-.392.32-.684.744-.875 1.272a5.08 5.08 0 0 0-.282 1.726c0 .631.094 1.208.282 1.732.191.525.483.944.875 1.26.397.315.895.473 1.496.473Zm12.923-2.666v-5.746h1.918v9.818h-1.879v-1.7h-.103a3.065 3.065 0 0 1-1.086 1.31c-.495.345-1.11.518-1.848.518-.63 0-1.189-.139-1.674-.416-.482-.281-.861-.696-1.138-1.246-.273-.55-.409-1.23-.409-2.039v-6.245h1.911v6.015c0 .669.185 1.201.556 1.598.371.396.852.594 1.445.594.358 0 .713-.089 1.067-.268.358-.179.654-.45.889-.812.238-.362.355-.823.351-1.381Zm6.397-1.758v5.83h-1.911v-9.818h1.834v1.598h.122c.226-.52.579-.938 1.061-1.253.486-.315 1.097-.473 1.834-.473.669 0 1.255.141 1.758.422.503.277.893.69 1.17 1.24.277.55.415 1.229.415 2.039v6.245h-1.911v-6.015c0-.712-.185-1.268-.556-1.668-.371-.405-.88-.608-1.528-.608a2.39 2.39 0 0 0-1.182.288 2.067 2.067 0 0 0-.812.844c-.196.366-.294.809-.294 1.329Zm12.522 6.022c-.793 0-1.5-.203-2.122-.608-.618-.409-1.104-.99-1.457-1.745-.35-.758-.525-1.668-.525-2.729 0-1.061.177-1.969.531-2.723.358-.754.848-1.332 1.47-1.732.622-.401 1.327-.601 2.116-.601.609 0 1.099.102 1.47.307.375.2.665.434.869.703.209.268.371.505.486.709h.115v-4.864h1.911v13.091h-1.866v-1.528h-.16a5.033 5.033 0 0 1-.498.716c-.214.269-.508.503-.883.703-.375.201-.86.301-1.457.301Zm.422-1.63c.55 0 1.014-.145 1.393-.435.384-.294.674-.701.87-1.221.2-.52.3-1.125.3-1.815 0-.682-.098-1.279-.294-1.79-.196-.511-.484-.91-.863-1.195-.379-.286-.848-.429-1.406-.429-.575 0-1.055.15-1.438.448-.384.298-.674.705-.87 1.221-.191.515-.287 1.097-.287 1.745 0 .656.098 1.246.294 1.77.196.525.486.94.869 1.247.388.302.865.454 1.432.454Z" fill="#A799FF"/>
    <defs>
        <radialGradient id="e" cx="0" cy="0" r="1" gradientUnits="userSpaceOnUse" gradientTransform="matrix(5.0928 16.81927 -16.63713 5.03766 101.205 94.046)">
            <stop stop-color="#A799FF"/>
            <stop offset="1" stop-color="#292739"/>
        </radialGradient>
        <radialGradient id="f" cx="0" cy="0" r="1" gradientUnits="userSpaceOnUse" gradientTransform="matrix(5.0928 16.81927 -16.63713 5.03766 193.831 94.046)">
            <stop stop-color="#A799FF"/>
            <stop offset="1" stop-color="#292739"/>
        </radialGradient>
        <radialGradient id="g" cx="0" cy="0" r="1" gradientUnits="userSpaceOnUse" gradientTransform="matrix(5.0928 16.81927 -16.63713 5.03766 147.52 68.452)">
            <stop stop-color="#A799FF"/>
            <stop offset="1" stop-color="#292739"/>
        </radialGradient>
        <radialGradient id="h" cx="0" cy="0" r="1" gradientUnits="userSpaceOnUse" gradientTransform="matrix(5.0928 16.81927 -16.63713 5.03766 147.52 164.737)">
            <stop stop-color="#A799FF"/>
            <stop offset="1" stop-color="#292739"/>
        </radialGradient>
        <radialGradient id="i" cx="0" cy="0" r="1" gradientUnits="userSpaceOnUse" gradientTransform="matrix(5.0928 16.81927 -16.63713 5.03766 101.205 139.142)">
            <stop stop-color="#A799FF"/>
            <stop offset="1" stop-color="#292739"/>
        </radialGradient>
        <radialGradient id="j" cx="0" cy="0" r="1" gradientUnits="userSpaceOnUse" gradientTransform="matrix(5.0928 16.81927 -16.63713 5.03766 193.831 139.142)">
            <stop stop-color="#A799FF"/>
            <stop offset="1" stop-color="#292739"/>
        </radialGradient>
        <linearGradient id="b" x1="152.003" y1="99.785" x2="172.692" y2="146.089" gradientUnits="userSpaceOnUse">
            <stop stop-color="#A799FF" stop-opacity=".51"/>
            <stop offset=".812" stop-color="#A799FF" stop-opacity=".11"/>
        </linearGradient>
        <linearGradient id="c" x1="152.61" y1="65.304" x2="152.61" y2="152.985" gradientUnits="userSpaceOnUse">
            <stop stop-color="#A799FF"/>
            <stop offset="1" stop-color="#504B75"/>
        </linearGradient>
        <linearGradient id="d" x1="153.233" y1="94.986" x2="153.233" y2="175.501" gradientUnits="userSpaceOnUse">
            <stop stop-color="#A799FF"/>
            <stop offset="1" stop-color="#211E34"/>
        </linearGradient>
        <filter id="a" x="43.629" y="23.926" width="216.741" height="216.741" filterUnits="userSpaceOnUse" color-interpolation-filters="sRGB">
            <feFlood flood-opacity="0" result="BackgroundImageFix"/>
            <feColorMatrix in="SourceAlpha" values="0 0 0 0 0 0 0 0 0 0 0 0 0 0 0 0 0 0 127 0" result="hardAlpha"/>
            <feOffset dy="9.852"/>
            <feGaussianBlur stdDeviation="24.63"/>
            <feColorMatrix values="0 0 0 0 0.207843 0 0 0 0 0.0705882 0 0 0 0 0.698039 0 0 0 0.3 0"/>
            <feBlend in2="BackgroundImageFix" result="effect1_dropShadow_9540_132330"/>
            <feBlend in="SourceGraphic" in2="effect1_dropShadow_9540_132330" result="shape"/>
        </filter>
    </defs>
</svg>
