<svg width="304" height="304" viewBox="0 0 304 304" fill="none" xmlns="http://www.w3.org/2000/svg">
<g clip-path="url(#clip0_6_24)">
<path d="M288 0H16C7.16344 0 0 7.16344 0 16V288C0 296.837 7.16344 304 16 304H288C296.837 304 304 296.837 304 288V16C304 7.16344 296.837 0 288 0Z" fill="#A799FF" fill-opacity="0.08"/>
<g opacity="0.7" filter="url(#filter0_d_6_24)">
<path d="M145.598 92.117L127.548 101.741C123.458 103.919 120.111 109.381 120.111 113.867V132.236C120.111 136.723 123.458 142.184 127.548 144.363L145.598 154.018C149.452 156.067 155.773 156.067 159.626 154.018L177.677 144.363C181.767 142.184 185.113 136.723 185.113 132.236V113.867C185.113 109.381 181.767 103.919 177.677 101.741L159.626 92.085C155.739 90.037 149.452 90.037 145.598 92.117Z" fill="url(#paint0_linear_6_24)"/>
<path d="M142.614 78.969L116.892 92.682C111.064 95.786 106.295 103.57 106.295 109.963V136.139C106.295 142.532 111.064 150.316 116.892 153.42L142.614 167.18C148.106 170.098 157.113 170.098 162.605 167.18L188.327 153.42C194.155 150.316 198.924 142.532 198.924 136.139V109.963C198.924 103.57 194.155 95.786 188.327 92.683L162.605 78.923C157.065 76.003 148.106 76.003 142.614 78.969Z" stroke="url(#paint1_linear_6_24)" stroke-width="7.389" stroke-linecap="round" stroke-linejoin="round"/>
<path fill-rule="evenodd" clip-rule="evenodd" d="M201.337 101.912C201.761 101.677 202.135 101.36 202.437 100.981C202.739 100.601 202.964 100.166 203.098 99.6994C203.231 99.2331 203.272 98.745 203.217 98.2629C203.162 97.7809 203.013 97.3144 202.778 96.89C202.543 96.4656 202.226 96.0917 201.847 95.7897C201.467 95.4876 201.032 95.2632 200.565 95.1294C199.624 94.8592 198.613 94.9741 197.756 95.449L152.646 120.445L108.746 95.47C108.324 95.2301 107.86 95.0756 107.378 95.0153C106.897 94.955 106.408 94.9901 105.94 95.1186C105.473 95.2471 105.035 95.4665 104.652 95.7643C104.269 96.062 103.948 96.4323 103.708 96.854C103.468 97.2757 103.314 97.7405 103.253 98.2219C103.193 98.7033 103.228 99.1918 103.357 99.6596C103.485 100.127 103.705 100.565 104.002 100.948C104.3 101.331 104.67 101.652 105.092 101.892L148.927 126.83V171.806C148.927 172.786 149.316 173.726 150.009 174.418C150.702 175.111 151.642 175.501 152.622 175.501C153.601 175.501 154.541 175.111 155.234 174.418C155.927 173.726 156.316 172.786 156.316 171.806V126.858L201.337 101.912Z" fill="url(#paint2_linear_6_24)"/>
<path d="M106.298 110.865C112.356 110.865 117.267 105.954 117.267 99.896C117.267 93.838 112.356 88.927 106.298 88.927C100.24 88.927 95.329 93.838 95.329 99.896C95.329 105.954 100.24 110.865 106.298 110.865Z" fill="url(#paint3_radial_6_24)"/>
<path d="M198.924 110.865C204.982 110.865 209.893 105.954 209.893 99.896C209.893 93.838 204.982 88.927 198.924 88.927C192.866 88.927 187.955 93.838 187.955 99.896C187.955 105.954 192.866 110.865 198.924 110.865Z" fill="url(#paint4_radial_6_24)"/>
<path d="M152.613 85.271C158.671 85.271 163.582 80.36 163.582 74.302C163.582 68.244 158.671 63.333 152.613 63.333C146.555 63.333 141.644 68.244 141.644 74.302C141.644 80.36 146.555 85.271 152.613 85.271Z" fill="url(#paint5_radial_6_24)"/>
<path d="M152.613 181.556C158.671 181.556 163.582 176.645 163.582 170.587C163.582 164.529 158.671 159.618 152.613 159.618C146.555 159.618 141.644 164.529 141.644 170.587C141.644 176.645 146.555 181.556 152.613 181.556Z" fill="url(#paint6_radial_6_24)"/>
<path d="M106.298 155.961C112.356 155.961 117.267 151.05 117.267 144.992C117.267 138.934 112.356 134.023 106.298 134.023C100.24 134.023 95.329 138.934 95.329 144.992C95.329 151.05 100.24 155.961 106.298 155.961Z" fill="url(#paint7_radial_6_24)"/>
<path d="M198.924 155.961C204.982 155.961 209.893 151.05 209.893 144.992C209.893 138.934 204.982 134.023 198.924 134.023C192.866 134.023 187.955 138.934 187.955 144.992C187.955 151.05 192.866 155.961 198.924 155.961Z" fill="url(#paint8_radial_6_24)"/>
</g>
<path d="M83.8181 230V216.909H85.7932V228.3H91.7251V230H83.8181ZM97.9605 230.198C97.04 230.198 96.2368 229.987 95.5507 229.565C94.8646 229.143 94.3319 228.553 93.9527 227.795C93.5734 227.036 93.3838 226.15 93.3838 225.136C93.3838 224.117 93.5734 223.227 93.9527 222.464C94.3319 221.701 94.8646 221.109 95.5507 220.687C96.2368 220.265 97.04 220.054 97.9605 220.054C98.8809 220.054 99.6842 220.265 100.37 220.687C101.056 221.109 101.589 221.701 101.968 222.464C102.348 223.227 102.537 224.117 102.537 225.136C102.537 226.15 102.348 227.036 101.968 227.795C101.589 228.553 101.056 229.143 100.37 229.565C99.6842 229.987 98.8809 230.198 97.9605 230.198ZM97.9669 228.594C98.5635 228.594 99.0578 228.436 99.4498 228.121C99.8419 227.805 100.132 227.386 100.319 226.862C100.511 226.337 100.607 225.76 100.607 225.129C100.607 224.503 100.511 223.928 100.319 223.403C100.132 222.875 99.8419 222.451 99.4498 222.131C99.0578 221.812 98.5635 221.652 97.9669 221.652C97.366 221.652 96.8675 221.812 96.4711 222.131C96.0791 222.451 95.7872 222.875 95.5954 223.403C95.4079 223.928 95.3142 224.503 95.3142 225.129C95.3142 225.76 95.4079 226.337 95.5954 226.862C95.7872 227.386 96.0791 227.805 96.4711 228.121C96.8675 228.436 97.366 228.594 97.9669 228.594ZM107.528 230.217C106.906 230.217 106.343 230.102 105.84 229.872C105.337 229.638 104.939 229.299 104.645 228.856C104.355 228.413 104.21 227.869 104.21 227.226C104.21 226.672 104.317 226.216 104.53 225.858C104.743 225.5 105.031 225.217 105.393 225.008C105.755 224.799 106.16 224.641 106.607 224.535C107.055 224.428 107.511 224.347 107.975 224.292C108.563 224.224 109.041 224.168 109.407 224.126C109.774 224.079 110.04 224.004 110.206 223.902C110.372 223.8 110.455 223.634 110.455 223.403V223.359C110.455 222.8 110.298 222.368 109.982 222.061C109.671 221.754 109.207 221.601 108.589 221.601C107.945 221.601 107.438 221.744 107.068 222.029C106.701 222.31 106.448 222.624 106.307 222.969L104.511 222.56C104.724 221.963 105.035 221.482 105.444 221.115C105.857 220.744 106.332 220.476 106.869 220.31C107.406 220.139 107.971 220.054 108.563 220.054C108.955 220.054 109.371 220.101 109.81 220.195C110.253 220.284 110.666 220.45 111.05 220.693C111.438 220.936 111.755 221.283 112.002 221.735C112.249 222.183 112.373 222.764 112.373 223.48V230H110.506V228.658H110.43C110.306 228.905 110.121 229.148 109.874 229.386C109.627 229.625 109.309 229.823 108.921 229.981C108.533 230.138 108.069 230.217 107.528 230.217ZM107.943 228.683C108.472 228.683 108.923 228.579 109.298 228.37C109.678 228.161 109.965 227.888 110.161 227.552C110.362 227.211 110.462 226.847 110.462 226.459V225.193C110.394 225.261 110.261 225.325 110.065 225.385C109.874 225.44 109.654 225.489 109.407 225.532C109.16 225.57 108.919 225.607 108.685 225.641C108.45 225.67 108.254 225.696 108.097 225.717C107.726 225.764 107.387 225.843 107.08 225.954C106.778 226.065 106.535 226.224 106.352 226.433C106.173 226.638 106.083 226.911 106.083 227.251C106.083 227.724 106.258 228.082 106.607 228.325C106.957 228.564 107.402 228.683 107.943 228.683ZM118.594 230.192C117.801 230.192 117.094 229.989 116.472 229.585C115.854 229.175 115.368 228.594 115.014 227.839C114.665 227.081 114.49 226.171 114.49 225.11C114.49 224.049 114.667 223.141 115.021 222.387C115.379 221.633 115.869 221.055 116.491 220.655C117.113 220.254 117.818 220.054 118.607 220.054C119.216 220.054 119.706 220.156 120.077 220.361C120.452 220.561 120.742 220.795 120.946 221.064C121.155 221.332 121.317 221.569 121.432 221.773H121.547V216.909H123.458V230H121.592V228.472H121.432C121.317 228.681 121.151 228.92 120.934 229.188C120.72 229.457 120.426 229.691 120.051 229.891C119.676 230.092 119.191 230.192 118.594 230.192ZM119.016 228.562C119.566 228.562 120.03 228.417 120.409 228.127C120.793 227.833 121.083 227.426 121.279 226.906C121.479 226.386 121.579 225.781 121.579 225.091C121.579 224.409 121.481 223.812 121.285 223.301C121.089 222.79 120.801 222.391 120.422 222.106C120.043 221.82 119.574 221.678 119.016 221.678C118.441 221.678 117.961 221.827 117.578 222.125C117.194 222.423 116.904 222.83 116.708 223.346C116.517 223.862 116.421 224.443 116.421 225.091C116.421 225.747 116.519 226.337 116.715 226.862C116.911 227.386 117.201 227.801 117.584 228.108C117.972 228.411 118.449 228.562 119.016 228.562ZM126.186 230V220.182H128.097V230H126.186ZM127.151 218.667C126.819 218.667 126.533 218.556 126.295 218.335C126.06 218.109 125.943 217.84 125.943 217.529C125.943 217.214 126.06 216.945 126.295 216.724C126.533 216.498 126.819 216.385 127.151 216.385C127.484 216.385 127.767 216.498 128.002 216.724C128.24 216.945 128.359 217.214 128.359 217.529C128.359 217.84 128.24 218.109 128.002 218.335C127.767 218.556 127.484 218.667 127.151 218.667ZM132.58 224.17V230H130.669V220.182H132.503V221.78H132.625C132.85 221.26 133.204 220.842 133.686 220.527C134.171 220.212 134.783 220.054 135.52 220.054C136.189 220.054 136.775 220.195 137.278 220.476C137.781 220.753 138.171 221.166 138.448 221.716C138.725 222.266 138.863 222.945 138.863 223.755V230H136.952V223.985C136.952 223.273 136.767 222.717 136.396 222.317C136.025 221.912 135.516 221.71 134.868 221.71C134.425 221.71 134.031 221.805 133.686 221.997C133.345 222.189 133.074 222.47 132.874 222.841C132.678 223.207 132.58 223.651 132.58 224.17ZM145.543 233.886C144.763 233.886 144.092 233.784 143.529 233.58C142.971 233.375 142.515 233.104 142.161 232.768C141.808 232.431 141.544 232.063 141.369 231.662L143.012 230.984C143.127 231.172 143.28 231.37 143.472 231.579C143.668 231.792 143.932 231.973 144.264 232.122C144.601 232.271 145.034 232.346 145.562 232.346C146.286 232.346 146.885 232.169 147.358 231.815C147.831 231.466 148.068 230.908 148.068 230.141V228.21H147.946C147.831 228.419 147.665 228.651 147.448 228.907C147.235 229.163 146.941 229.384 146.566 229.572C146.191 229.759 145.703 229.853 145.102 229.853C144.326 229.853 143.627 229.672 143.005 229.31C142.387 228.943 141.897 228.404 141.535 227.692C141.177 226.977 140.998 226.097 140.998 225.053C140.998 224.009 141.175 223.114 141.529 222.368C141.887 221.622 142.377 221.051 142.999 220.655C143.621 220.254 144.326 220.054 145.115 220.054C145.724 220.054 146.216 220.156 146.591 220.361C146.966 220.561 147.258 220.795 147.467 221.064C147.68 221.332 147.844 221.569 147.959 221.773H148.1V220.182H149.973V230.217C149.973 231.061 149.777 231.754 149.384 232.295C148.992 232.836 148.462 233.237 147.793 233.496C147.128 233.756 146.378 233.886 145.543 233.886ZM145.524 228.268C146.073 228.268 146.538 228.14 146.917 227.884C147.301 227.624 147.59 227.254 147.786 226.772C147.987 226.286 148.087 225.705 148.087 225.027C148.087 224.366 147.989 223.785 147.793 223.282C147.597 222.779 147.309 222.387 146.93 222.106C146.551 221.82 146.082 221.678 145.524 221.678C144.948 221.678 144.469 221.827 144.085 222.125C143.702 222.419 143.412 222.82 143.216 223.327C143.024 223.834 142.929 224.401 142.929 225.027C142.929 225.67 143.027 226.235 143.223 226.721C143.419 227.207 143.708 227.586 144.092 227.859C144.48 228.131 144.957 228.268 145.524 228.268ZM157.299 230V220.182H159.211V230H157.299ZM158.265 218.667C157.932 218.667 157.647 218.556 157.408 218.335C157.174 218.109 157.057 217.84 157.057 217.529C157.057 217.214 157.174 216.945 157.408 216.724C157.647 216.498 157.932 216.385 158.265 216.385C158.597 216.385 158.88 216.498 159.115 216.724C159.353 216.945 159.473 217.214 159.473 217.529C159.473 217.84 159.353 218.109 159.115 218.335C158.88 218.556 158.597 218.667 158.265 218.667ZM161.782 230V220.182H163.616V221.78H163.738C163.942 221.239 164.277 220.817 164.741 220.514C165.206 220.207 165.762 220.054 166.41 220.054C167.066 220.054 167.616 220.207 168.059 220.514C168.506 220.821 168.837 221.243 169.05 221.78H169.152C169.386 221.256 169.759 220.838 170.271 220.527C170.782 220.212 171.391 220.054 172.099 220.054C172.989 220.054 173.716 220.333 174.278 220.891C174.845 221.45 175.128 222.291 175.128 223.416V230H173.217V223.595C173.217 222.93 173.036 222.449 172.674 222.151C172.312 221.852 171.879 221.703 171.376 221.703C170.754 221.703 170.271 221.895 169.925 222.278C169.58 222.658 169.408 223.146 169.408 223.742V230H167.503V223.474C167.503 222.941 167.337 222.513 167.004 222.189C166.672 221.865 166.239 221.703 165.707 221.703C165.344 221.703 165.01 221.799 164.703 221.991C164.4 222.178 164.155 222.44 163.968 222.777C163.785 223.114 163.693 223.504 163.693 223.947V230H161.782ZM180.547 230.217C179.925 230.217 179.363 230.102 178.86 229.872C178.357 229.638 177.959 229.299 177.665 228.856C177.375 228.413 177.23 227.869 177.23 227.226C177.23 226.672 177.336 226.216 177.549 225.858C177.763 225.5 178.05 225.217 178.412 225.008C178.775 224.799 179.179 224.641 179.627 224.535C180.074 224.428 180.53 224.347 180.995 224.292C181.583 224.224 182.06 224.168 182.427 224.126C182.793 224.079 183.059 224.004 183.226 223.902C183.392 223.8 183.475 223.634 183.475 223.403V223.359C183.475 222.8 183.317 222.368 183.002 222.061C182.691 221.754 182.226 221.601 181.608 221.601C180.965 221.601 180.458 221.744 180.087 222.029C179.721 222.31 179.467 222.624 179.326 222.969L177.53 222.56C177.743 221.963 178.054 221.482 178.464 221.115C178.877 220.744 179.352 220.476 179.889 220.31C180.426 220.139 180.991 220.054 181.583 220.054C181.975 220.054 182.39 220.101 182.829 220.195C183.272 220.284 183.686 220.45 184.069 220.693C184.457 220.936 184.775 221.283 185.022 221.735C185.269 222.183 185.392 222.764 185.392 223.48V230H183.526V228.658H183.449C183.326 228.905 183.14 229.148 182.893 229.386C182.646 229.625 182.329 229.823 181.941 229.981C181.553 230.138 181.089 230.217 180.547 230.217ZM180.963 228.683C181.491 228.683 181.943 228.579 182.318 228.37C182.697 228.161 182.985 227.888 183.181 227.552C183.381 227.211 183.481 226.847 183.481 226.459V225.193C183.413 225.261 183.281 225.325 183.085 225.385C182.893 225.44 182.674 225.489 182.427 225.532C182.179 225.57 181.939 225.607 181.704 225.641C181.47 225.67 181.274 225.696 181.116 225.717C180.745 225.764 180.407 225.843 180.1 225.954C179.797 226.065 179.554 226.224 179.371 226.433C179.192 226.638 179.103 226.911 179.103 227.251C179.103 227.724 179.277 228.082 179.627 228.325C179.976 228.564 180.422 228.683 180.963 228.683ZM192.055 233.886C191.275 233.886 190.604 233.784 190.041 233.58C189.483 233.375 189.027 233.104 188.673 232.768C188.32 232.431 188.055 232.063 187.881 231.662L189.523 230.984C189.638 231.172 189.792 231.37 189.984 231.579C190.18 231.792 190.444 231.973 190.776 232.122C191.113 232.271 191.545 232.346 192.074 232.346C192.798 232.346 193.397 232.169 193.87 231.815C194.343 231.466 194.579 230.908 194.579 230.141V228.21H194.458C194.343 228.419 194.177 228.651 193.959 228.907C193.746 229.163 193.452 229.384 193.077 229.572C192.702 229.759 192.214 229.853 191.614 229.853C190.838 229.853 190.139 229.672 189.517 229.31C188.899 228.943 188.409 228.404 188.047 227.692C187.689 226.977 187.51 226.097 187.51 225.053C187.51 224.009 187.687 223.114 188.04 222.368C188.398 221.622 188.888 221.051 189.511 220.655C190.133 220.254 190.838 220.054 191.626 220.054C192.236 220.054 192.728 220.156 193.103 220.361C193.478 220.561 193.77 220.795 193.979 221.064C194.192 221.332 194.356 221.569 194.471 221.773H194.611V220.182H196.484V230.217C196.484 231.061 196.288 231.754 195.896 232.295C195.504 232.836 194.974 233.237 194.305 233.496C193.64 233.756 192.89 233.886 192.055 233.886ZM192.035 228.268C192.585 228.268 193.05 228.14 193.429 227.884C193.812 227.624 194.102 227.254 194.298 226.772C194.498 226.286 194.599 225.705 194.599 225.027C194.599 224.366 194.501 223.785 194.305 223.282C194.109 222.779 193.821 222.387 193.442 222.106C193.062 221.82 192.594 221.678 192.035 221.678C191.46 221.678 190.981 221.827 190.597 222.125C190.214 222.419 189.924 222.82 189.728 223.327C189.536 223.834 189.44 224.401 189.44 225.027C189.44 225.67 189.538 226.235 189.734 226.721C189.93 227.207 190.22 227.586 190.604 227.859C190.991 228.131 191.469 228.268 192.035 228.268ZM203.279 230.198C202.312 230.198 201.479 229.991 200.78 229.578C200.085 229.161 199.548 228.575 199.169 227.82C198.794 227.062 198.606 226.173 198.606 225.155C198.606 224.149 198.794 223.263 199.169 222.496C199.548 221.729 200.077 221.13 200.754 220.7C201.436 220.269 202.233 220.054 203.145 220.054C203.699 220.054 204.236 220.146 204.756 220.329C205.275 220.512 205.742 220.8 206.155 221.192C206.569 221.584 206.895 222.093 207.133 222.719C207.372 223.342 207.491 224.098 207.491 224.989V225.666H199.687V224.234H205.619C205.619 223.732 205.516 223.286 205.312 222.898C205.107 222.506 204.82 222.197 204.449 221.972C204.082 221.746 203.652 221.633 203.158 221.633C202.621 221.633 202.152 221.765 201.751 222.029C201.355 222.289 201.048 222.63 200.831 223.052C200.618 223.469 200.511 223.923 200.511 224.413V225.532C200.511 226.188 200.626 226.746 200.856 227.207C201.091 227.667 201.417 228.018 201.834 228.261C202.252 228.5 202.74 228.619 203.298 228.619C203.66 228.619 203.991 228.568 204.289 228.466C204.587 228.359 204.845 228.202 205.062 227.993C205.28 227.784 205.446 227.526 205.561 227.219L207.37 227.545C207.225 228.078 206.965 228.545 206.59 228.945C206.219 229.342 205.753 229.651 205.19 229.872C204.632 230.089 203.995 230.198 203.279 230.198ZM210.871 230.121C210.522 230.121 210.221 229.998 209.97 229.751C209.718 229.499 209.593 229.197 209.593 228.843C209.593 228.494 209.718 228.195 209.97 227.948C210.221 227.697 210.522 227.571 210.871 227.571C211.221 227.571 211.521 227.697 211.772 227.948C212.024 228.195 212.15 228.494 212.15 228.843C212.15 229.077 212.09 229.293 211.971 229.489C211.856 229.68 211.702 229.834 211.51 229.949C211.319 230.064 211.106 230.121 210.871 230.121ZM215.969 230.121C215.619 230.121 215.319 229.998 215.068 229.751C214.816 229.499 214.69 229.197 214.69 228.843C214.69 228.494 214.816 228.195 215.068 227.948C215.319 227.697 215.619 227.571 215.969 227.571C216.318 227.571 216.619 227.697 216.87 227.948C217.122 228.195 217.247 228.494 217.247 228.843C217.247 229.077 217.188 229.293 217.068 229.489C216.953 229.68 216.8 229.834 216.608 229.949C216.416 230.064 216.203 230.121 215.969 230.121ZM221.066 230.121C220.717 230.121 220.417 229.998 220.165 229.751C219.914 229.499 219.788 229.197 219.788 228.843C219.788 228.494 219.914 228.195 220.165 227.948C220.417 227.697 220.717 227.571 221.066 227.571C221.416 227.571 221.716 227.697 221.968 227.948C222.219 228.195 222.345 228.494 222.345 228.843C222.345 229.077 222.285 229.293 222.166 229.489C222.051 229.68 221.897 229.834 221.706 229.949C221.514 230.064 221.301 230.121 221.066 230.121Z" fill="#A799FF"/>
</g>
<defs>
<filter id="filter0_d_6_24" x="46.069" y="23.925" width="213.084" height="216.743" filterUnits="userSpaceOnUse" color-interpolation-filters="sRGB">
<feFlood flood-opacity="0" result="BackgroundImageFix"/>
<feColorMatrix in="SourceAlpha" type="matrix" values="0 0 0 0 0 0 0 0 0 0 0 0 0 0 0 0 0 0 127 0" result="hardAlpha"/>
<feOffset dy="9.852"/>
<feGaussianBlur stdDeviation="24.63"/>
<feColorMatrix type="matrix" values="0 0 0 0 0.207843 0 0 0 0 0.0705882 0 0 0 0 0.698039 0 0 0 0.3 0"/>
<feBlend mode="normal" in2="BackgroundImageFix" result="effect1_dropShadow_6_24"/>
<feBlend mode="normal" in="SourceGraphic" in2="effect1_dropShadow_6_24" result="shape"/>
</filter>
<linearGradient id="paint0_linear_6_24" x1="152.003" y1="99.785" x2="172.692" y2="146.089" gradientUnits="userSpaceOnUse">
<stop stop-color="#A799FF" stop-opacity="0.51"/>
<stop offset="0.812" stop-color="#A799FF" stop-opacity="0.11"/>
</linearGradient>
<linearGradient id="paint1_linear_6_24" x1="152.61" y1="65.304" x2="152.61" y2="152.985" gradientUnits="userSpaceOnUse">
<stop stop-color="#A799FF"/>
<stop offset="1" stop-color="#504B75"/>
</linearGradient>
<linearGradient id="paint2_linear_6_24" x1="153.233" y1="94.986" x2="153.233" y2="175.501" gradientUnits="userSpaceOnUse">
<stop stop-color="#A799FF"/>
<stop offset="1" stop-color="#211E34"/>
</linearGradient>
<radialGradient id="paint3_radial_6_24" cx="0" cy="0" r="1" gradientUnits="userSpaceOnUse" gradientTransform="translate(101.205 94.046) rotate(73.1539) scale(17.5734 17.3831)">
<stop stop-color="#A799FF"/>
<stop offset="1" stop-color="#292739"/>
</radialGradient>
<radialGradient id="paint4_radial_6_24" cx="0" cy="0" r="1" gradientUnits="userSpaceOnUse" gradientTransform="translate(193.831 94.046) rotate(73.1539) scale(17.5734 17.3831)">
<stop stop-color="#A799FF"/>
<stop offset="1" stop-color="#292739"/>
</radialGradient>
<radialGradient id="paint5_radial_6_24" cx="0" cy="0" r="1" gradientUnits="userSpaceOnUse" gradientTransform="translate(147.52 68.452) rotate(73.1539) scale(17.5734 17.3831)">
<stop stop-color="#A799FF"/>
<stop offset="1" stop-color="#292739"/>
</radialGradient>
<radialGradient id="paint6_radial_6_24" cx="0" cy="0" r="1" gradientUnits="userSpaceOnUse" gradientTransform="translate(147.52 164.737) rotate(73.1539) scale(17.5734 17.3831)">
<stop stop-color="#A799FF"/>
<stop offset="1" stop-color="#292739"/>
</radialGradient>
<radialGradient id="paint7_radial_6_24" cx="0" cy="0" r="1" gradientUnits="userSpaceOnUse" gradientTransform="translate(101.205 139.142) rotate(73.1539) scale(17.5734 17.3831)">
<stop stop-color="#A799FF"/>
<stop offset="1" stop-color="#292739"/>
</radialGradient>
<radialGradient id="paint8_radial_6_24" cx="0" cy="0" r="1" gradientUnits="userSpaceOnUse" gradientTransform="translate(193.831 139.142) rotate(73.1539) scale(17.5734 17.3831)">
<stop stop-color="#A799FF"/>
<stop offset="1" stop-color="#292739"/>
</radialGradient>
<clipPath id="clip0_6_24">
<rect width="304" height="304" fill="white"/>
</clipPath>
</defs>
</svg>
