<svg width="304" height="304" viewBox="0 0 304 304" fill="none" xmlns="http://www.w3.org/2000/svg">
<rect width="304" height="304" rx="16" fill="#EDEBFF"/>
<g opacity="0.5" filter="url(#filter0_d_9473_126218)">
<g filter="url(#filter1_d_9473_126218)">
<path d="M145.598 92.1174L127.548 101.741C123.458 103.919 120.111 109.381 120.111 113.867V132.236C120.111 136.723 123.458 142.184 127.548 144.363L145.598 154.018C149.452 156.067 155.773 156.067 159.626 154.018L177.677 144.363C181.767 142.184 185.113 136.723 185.113 132.236V113.867C185.113 109.381 181.767 103.919 177.677 101.741L159.626 92.0848C155.739 90.0366 149.452 90.0366 145.598 92.1174Z" fill="url(#paint0_linear_9473_126218)"/>
</g>
<path d="M142.615 78.9689L116.893 92.6823C111.064 95.7863 106.295 103.57 106.295 109.963V136.139C106.295 142.532 111.064 150.316 116.893 153.42L142.615 167.18C148.106 170.098 157.114 170.098 162.605 167.18L188.327 153.42C194.156 150.316 198.925 142.532 198.925 136.139V109.963C198.925 103.57 194.156 95.7863 188.327 92.6823L162.605 78.9226C157.066 76.0038 148.106 76.0038 142.615 78.9689Z" stroke="url(#paint1_linear_9473_126218)" stroke-width="7.38889" stroke-linecap="round" stroke-linejoin="round"/>
<path fill-rule="evenodd" clip-rule="evenodd" d="M201.338 101.912C203.122 100.923 203.767 98.6749 202.778 96.8901C201.79 95.1054 199.541 94.4603 197.756 95.4492L152.646 120.445L108.746 95.4696C106.973 94.4606 104.717 95.0804 103.708 96.8539C102.699 98.6274 103.319 100.883 105.092 101.892L148.927 126.83L148.927 171.806C148.927 173.847 150.581 175.501 152.622 175.501C154.662 175.501 156.316 173.847 156.316 171.806L156.316 126.858L201.338 101.912Z" fill="url(#paint2_linear_9473_126218)"/>
<circle cx="106.298" cy="99.8961" r="10.9691" fill="url(#paint3_radial_9473_126218)"/>
<circle cx="198.924" cy="99.8961" r="10.9691" fill="url(#paint4_radial_9473_126218)"/>
<circle cx="152.613" cy="74.3023" r="10.9691" fill="url(#paint5_radial_9473_126218)"/>
<circle cx="152.613" cy="170.587" r="10.9691" fill="url(#paint6_radial_9473_126218)"/>
<circle cx="106.298" cy="144.992" r="10.9691" fill="url(#paint7_radial_9473_126218)"/>
<circle cx="198.924" cy="144.992" r="10.9691" fill="url(#paint8_radial_9473_126218)"/>
</g>
<path d="M97.0209 216.798V229.889H95.2055L88.5514 220.288H88.43V229.889H86.4548V216.798H88.2829L94.9434 226.412H95.0649V216.798H97.0209ZM103.884 230.087C102.964 230.087 102.161 229.876 101.475 229.454C100.788 229.032 100.256 228.442 99.8765 227.684C99.4972 226.925 99.3076 226.039 99.3076 225.025C99.3076 224.006 99.4972 223.115 99.8765 222.353C100.256 221.59 100.788 220.998 101.475 220.576C102.161 220.154 102.964 219.943 103.884 219.943C104.805 219.943 105.608 220.154 106.294 220.576C106.98 220.998 107.513 221.59 107.892 222.353C108.271 223.115 108.461 224.006 108.461 225.025C108.461 226.039 108.271 226.925 107.892 227.684C107.513 228.442 106.98 229.032 106.294 229.454C105.608 229.876 104.805 230.087 103.884 230.087ZM103.891 228.483C104.487 228.483 104.982 228.325 105.374 228.01C105.766 227.694 106.055 227.275 106.243 226.75C106.435 226.226 106.531 225.649 106.531 225.018C106.531 224.392 106.435 223.816 106.243 223.292C106.055 222.764 105.766 222.34 105.374 222.02C104.982 221.701 104.487 221.541 103.891 221.541C103.29 221.541 102.791 221.701 102.395 222.02C102.003 222.34 101.711 222.764 101.519 223.292C101.332 223.816 101.238 224.392 101.238 225.018C101.238 225.649 101.332 226.226 101.519 226.75C101.711 227.275 102.003 227.694 102.395 228.01C102.791 228.325 103.29 228.483 103.891 228.483ZM115.358 229.889V220.071H117.269V229.889H115.358ZM116.323 218.556C115.991 218.556 115.705 218.445 115.467 218.223C115.232 217.998 115.115 217.729 115.115 217.418C115.115 217.103 115.232 216.834 115.467 216.613C115.705 216.387 115.991 216.274 116.323 216.274C116.656 216.274 116.939 216.387 117.173 216.613C117.412 216.834 117.531 217.103 117.531 217.418C117.531 217.729 117.412 217.998 117.173 218.223C116.939 218.445 116.656 218.556 116.323 218.556ZM119.84 229.889V220.071H121.675V221.669H121.796C122.001 221.128 122.335 220.706 122.8 220.403C123.264 220.096 123.821 219.943 124.468 219.943C125.125 219.943 125.674 220.096 126.117 220.403C126.565 220.71 126.895 221.132 127.108 221.669H127.21C127.445 221.145 127.818 220.727 128.329 220.416C128.84 220.101 129.45 219.943 130.157 219.943C131.048 219.943 131.774 220.222 132.337 220.78C132.904 221.338 133.187 222.18 133.187 223.305V229.889H131.276V223.484C131.276 222.819 131.095 222.338 130.733 222.039C130.37 221.741 129.938 221.592 129.435 221.592C128.813 221.592 128.329 221.784 127.984 222.167C127.639 222.547 127.466 223.035 127.466 223.631V229.889H125.561V223.363C125.561 222.83 125.395 222.402 125.063 222.078C124.73 221.754 124.298 221.592 123.765 221.592C123.403 221.592 123.068 221.688 122.762 221.88C122.459 222.067 122.214 222.329 122.027 222.666C121.843 223.003 121.752 223.392 121.752 223.836V229.889H119.84ZM138.606 230.106C137.984 230.106 137.421 229.991 136.918 229.761C136.416 229.527 136.017 229.188 135.723 228.745C135.433 228.302 135.288 227.758 135.288 227.115C135.288 226.561 135.395 226.105 135.608 225.747C135.821 225.389 136.109 225.106 136.471 224.897C136.833 224.688 137.238 224.53 137.685 224.424C138.133 224.317 138.589 224.236 139.053 224.181C139.641 224.113 140.119 224.057 140.485 224.015C140.852 223.968 141.118 223.893 141.284 223.791C141.45 223.689 141.533 223.522 141.533 223.292V223.248C141.533 222.689 141.376 222.257 141.06 221.95C140.749 221.643 140.285 221.49 139.667 221.49C139.024 221.49 138.516 221.633 138.146 221.918C137.779 222.199 137.526 222.512 137.385 222.858L135.589 222.449C135.802 221.852 136.113 221.37 136.522 221.004C136.935 220.633 137.411 220.365 137.948 220.199C138.484 220.028 139.049 219.943 139.641 219.943C140.033 219.943 140.449 219.99 140.888 220.084C141.331 220.173 141.744 220.339 142.128 220.582C142.516 220.825 142.833 221.172 143.08 221.624C143.328 222.071 143.451 222.653 143.451 223.369V229.889H141.585V228.547H141.508C141.384 228.794 141.199 229.037 140.952 229.275C140.705 229.514 140.387 229.712 139.999 229.87C139.612 230.027 139.147 230.106 138.606 230.106ZM139.021 228.572C139.55 228.572 140.002 228.468 140.377 228.259C140.756 228.05 141.043 227.777 141.239 227.441C141.44 227.1 141.54 226.736 141.54 226.348V225.082C141.472 225.15 141.34 225.214 141.144 225.274C140.952 225.329 140.732 225.378 140.485 225.421C140.238 225.459 139.997 225.495 139.763 225.53C139.528 225.559 139.332 225.585 139.175 225.606C138.804 225.653 138.465 225.732 138.158 225.843C137.856 225.954 137.613 226.113 137.43 226.322C137.251 226.527 137.161 226.799 137.161 227.14C137.161 227.613 137.336 227.971 137.685 228.214C138.035 228.453 138.48 228.572 139.021 228.572ZM150.113 233.775C149.333 233.775 148.662 233.673 148.1 233.468C147.541 233.264 147.085 232.993 146.732 232.657C146.378 232.32 146.114 231.951 145.939 231.551L147.582 230.873C147.697 231.061 147.85 231.259 148.042 231.468C148.238 231.681 148.502 231.862 148.835 232.011C149.171 232.16 149.604 232.235 150.132 232.235C150.857 232.235 151.456 232.058 151.929 231.704C152.402 231.355 152.638 230.797 152.638 230.03V228.099H152.517C152.402 228.308 152.235 228.54 152.018 228.796C151.805 229.052 151.511 229.273 151.136 229.461C150.761 229.648 150.273 229.742 149.672 229.742C148.897 229.742 148.198 229.561 147.576 229.199C146.958 228.832 146.468 228.293 146.105 227.581C145.747 226.865 145.568 225.986 145.568 224.941C145.568 223.897 145.745 223.003 146.099 222.257C146.457 221.511 146.947 220.94 147.569 220.544C148.191 220.143 148.897 219.943 149.685 219.943C150.294 219.943 150.786 220.045 151.161 220.25C151.536 220.45 151.828 220.684 152.037 220.953C152.25 221.221 152.414 221.458 152.529 221.662H152.67V220.071H154.543V230.106C154.543 230.95 154.347 231.642 153.955 232.184C153.563 232.725 153.032 233.125 152.363 233.385C151.698 233.645 150.948 233.775 150.113 233.775ZM150.094 228.157C150.644 228.157 151.108 228.029 151.487 227.773C151.871 227.513 152.161 227.142 152.357 226.661C152.557 226.175 152.657 225.593 152.657 224.916C152.657 224.255 152.559 223.674 152.363 223.171C152.167 222.668 151.88 222.276 151.5 221.995C151.121 221.709 150.652 221.566 150.094 221.566C149.519 221.566 149.039 221.716 148.656 222.014C148.272 222.308 147.983 222.709 147.786 223.216C147.595 223.723 147.499 224.289 147.499 224.916C147.499 225.559 147.597 226.124 147.793 226.61C147.989 227.096 148.279 227.475 148.662 227.748C149.05 228.02 149.527 228.157 150.094 228.157ZM161.338 230.087C160.37 230.087 159.537 229.88 158.838 229.467C158.144 229.049 157.607 228.463 157.228 227.709C156.853 226.951 156.665 226.062 156.665 225.044C156.665 224.038 156.853 223.152 157.228 222.385C157.607 221.618 158.135 221.019 158.813 220.588C159.495 220.158 160.291 219.943 161.203 219.943C161.757 219.943 162.294 220.035 162.814 220.218C163.334 220.401 163.801 220.689 164.214 221.081C164.627 221.473 164.953 221.982 165.192 222.608C165.431 223.231 165.55 223.987 165.55 224.878V225.555H157.745V224.123H163.677C163.677 223.62 163.575 223.175 163.37 222.787C163.166 222.395 162.878 222.086 162.507 221.861C162.141 221.635 161.71 221.522 161.216 221.522C160.679 221.522 160.21 221.654 159.81 221.918C159.414 222.178 159.107 222.519 158.889 222.941C158.676 223.358 158.57 223.812 158.57 224.302V225.421C158.57 226.077 158.685 226.635 158.915 227.096C159.149 227.556 159.475 227.907 159.893 228.15C160.311 228.389 160.799 228.508 161.357 228.508C161.719 228.508 162.049 228.457 162.348 228.355C162.646 228.248 162.904 228.091 163.121 227.882C163.338 227.673 163.505 227.415 163.62 227.108L165.429 227.434C165.284 227.967 165.024 228.434 164.649 228.834C164.278 229.231 163.811 229.539 163.249 229.761C162.691 229.978 162.054 230.087 161.338 230.087ZM177.107 220.071V221.605H171.559V220.071H177.107ZM173.08 229.889V218.933C173.08 218.319 173.214 217.81 173.483 217.405C173.751 216.996 174.107 216.691 174.55 216.491C174.993 216.287 175.475 216.184 175.995 216.184C176.378 216.184 176.706 216.216 176.979 216.28C177.252 216.34 177.454 216.395 177.586 216.446L177.139 217.993C177.049 217.968 176.934 217.938 176.794 217.904C176.653 217.865 176.483 217.846 176.282 217.846C175.818 217.846 175.485 217.961 175.285 218.191C175.089 218.422 174.991 218.754 174.991 219.189V229.889H173.08ZM182.828 230.087C181.907 230.087 181.104 229.876 180.418 229.454C179.732 229.032 179.199 228.442 178.82 227.684C178.441 226.925 178.251 226.039 178.251 225.025C178.251 224.006 178.441 223.115 178.82 222.353C179.199 221.59 179.732 220.998 180.418 220.576C181.104 220.154 181.907 219.943 182.828 219.943C183.748 219.943 184.551 220.154 185.237 220.576C185.924 220.998 186.456 221.59 186.835 222.353C187.215 223.115 187.404 224.006 187.404 225.025C187.404 226.039 187.215 226.925 186.835 227.684C186.456 228.442 185.924 229.032 185.237 229.454C184.551 229.876 183.748 230.087 182.828 230.087ZM182.834 228.483C183.431 228.483 183.925 228.325 184.317 228.01C184.709 227.694 184.999 227.275 185.186 226.75C185.378 226.226 185.474 225.649 185.474 225.018C185.474 224.392 185.378 223.816 185.186 223.292C184.999 222.764 184.709 222.34 184.317 222.02C183.925 221.701 183.431 221.541 182.834 221.541C182.233 221.541 181.735 221.701 181.338 222.02C180.946 222.34 180.654 222.764 180.463 223.292C180.275 223.816 180.181 224.392 180.181 225.018C180.181 225.649 180.275 226.226 180.463 226.75C180.654 227.275 180.946 227.694 181.338 228.01C181.735 228.325 182.233 228.483 182.834 228.483ZM195.757 225.817V220.071H197.675V229.889H195.796V228.189H195.693C195.467 228.713 195.105 229.15 194.607 229.499C194.112 229.844 193.497 230.017 192.759 230.017C192.129 230.017 191.57 229.878 191.085 229.601C190.603 229.32 190.224 228.905 189.947 228.355C189.674 227.805 189.538 227.125 189.538 226.316V220.071H191.449V226.086C191.449 226.755 191.634 227.287 192.005 227.684C192.376 228.08 192.857 228.278 193.45 228.278C193.808 228.278 194.163 228.189 194.517 228.01C194.875 227.831 195.171 227.56 195.406 227.198C195.644 226.836 195.761 226.375 195.757 225.817ZM202.154 224.059V229.889H200.243V220.071H202.077V221.669H202.199C202.425 221.149 202.778 220.731 203.26 220.416C203.746 220.101 204.357 219.943 205.094 219.943C205.763 219.943 206.349 220.084 206.852 220.365C207.355 220.642 207.745 221.055 208.022 221.605C208.299 222.155 208.437 222.834 208.437 223.644V229.889H206.526V223.874C206.526 223.162 206.341 222.606 205.97 222.206C205.599 221.801 205.09 221.598 204.442 221.598C203.999 221.598 203.605 221.694 203.26 221.886C202.919 222.078 202.648 222.359 202.448 222.73C202.252 223.096 202.154 223.539 202.154 224.059ZM214.676 230.081C213.883 230.081 213.176 229.878 212.554 229.473C211.936 229.064 211.45 228.483 211.097 227.728C210.747 226.97 210.572 226.06 210.572 224.999C210.572 223.938 210.749 223.03 211.103 222.276C211.461 221.522 211.951 220.944 212.573 220.544C213.195 220.143 213.9 219.943 214.689 219.943C215.298 219.943 215.788 220.045 216.159 220.25C216.534 220.45 216.824 220.684 217.028 220.953C217.237 221.221 217.399 221.458 217.514 221.662H217.629V216.798H219.54V229.889H217.674V228.361H217.514C217.399 228.57 217.233 228.809 217.016 229.077C216.802 229.346 216.508 229.58 216.133 229.78C215.758 229.981 215.273 230.081 214.676 230.081ZM215.098 228.451C215.648 228.451 216.112 228.306 216.491 228.016C216.875 227.722 217.165 227.315 217.361 226.795C217.561 226.275 217.661 225.67 217.661 224.98C217.661 224.298 217.563 223.701 217.367 223.19C217.171 222.679 216.883 222.28 216.504 221.995C216.125 221.709 215.656 221.566 215.098 221.566C214.523 221.566 214.043 221.716 213.66 222.014C213.276 222.312 212.986 222.719 212.79 223.235C212.599 223.75 212.503 224.332 212.503 224.98C212.503 225.636 212.601 226.226 212.797 226.75C212.993 227.275 213.283 227.69 213.666 227.997C214.054 228.299 214.531 228.451 215.098 228.451Z" fill="#A799FF"/>
<defs>
<filter id="filter0_d_9473_126218" x="43.6297" y="23.9258" width="216.741" height="216.741" filterUnits="userSpaceOnUse" color-interpolation-filters="sRGB">
<feFlood flood-opacity="0" result="BackgroundImageFix"/>
<feColorMatrix in="SourceAlpha" type="matrix" values="0 0 0 0 0 0 0 0 0 0 0 0 0 0 0 0 0 0 127 0" result="hardAlpha"/>
<feOffset dy="9.85185"/>
<feGaussianBlur stdDeviation="24.6296"/>
<feColorMatrix type="matrix" values="0 0 0 0 0.207843 0 0 0 0 0.0705882 0 0 0 0 0.698039 0 0 0 0.3 0"/>
<feBlend mode="normal" in2="BackgroundImageFix" result="effect1_dropShadow_9473_126218"/>
<feBlend mode="normal" in="SourceGraphic" in2="effect1_dropShadow_9473_126218" result="shape"/>
</filter>
<filter id="filter1_d_9473_126218" x="100.408" y="78.7305" width="104.409" height="104.409" filterUnits="userSpaceOnUse" color-interpolation-filters="sRGB">
<feFlood flood-opacity="0" result="BackgroundImageFix"/>
<feColorMatrix in="SourceAlpha" type="matrix" values="0 0 0 0 0 0 0 0 0 0 0 0 0 0 0 0 0 0 127 0" result="hardAlpha"/>
<feOffset dy="7.88148"/>
<feGaussianBlur stdDeviation="9.85185"/>
<feComposite in2="hardAlpha" operator="out"/>
<feColorMatrix type="matrix" values="0 0 0 0 0.207843 0 0 0 0 0.0705882 0 0 0 0 0.698039 0 0 0 0.1 0"/>
<feBlend mode="normal" in2="BackgroundImageFix" result="effect1_dropShadow_9473_126218"/>
<feBlend mode="normal" in="SourceGraphic" in2="effect1_dropShadow_9473_126218" result="shape"/>
</filter>
<linearGradient id="paint0_linear_9473_126218" x1="152.003" y1="99.785" x2="172.692" y2="146.089" gradientUnits="userSpaceOnUse">
<stop stop-color="white"/>
<stop offset="0.811927" stop-color="#A799FF"/>
</linearGradient>
<linearGradient id="paint1_linear_9473_126218" x1="152.61" y1="65.3038" x2="152.61" y2="152.985" gradientUnits="userSpaceOnUse">
<stop stop-color="#9888FF"/>
<stop offset="1" stop-color="#522FD4"/>
</linearGradient>
<linearGradient id="paint2_linear_9473_126218" x1="153.233" y1="94.9856" x2="153.233" y2="175.501" gradientUnits="userSpaceOnUse">
<stop stop-color="#9888FF"/>
<stop offset="1" stop-color="#522FD4"/>
</linearGradient>
<radialGradient id="paint3_radial_9473_126218" cx="0" cy="0" r="1" gradientUnits="userSpaceOnUse" gradientTransform="translate(101.206 94.0459) rotate(73.1539) scale(17.5734 17.3831)">
<stop stop-color="#D2CAFF"/>
<stop offset="1" stop-color="#715CFF"/>
</radialGradient>
<radialGradient id="paint4_radial_9473_126218" cx="0" cy="0" r="1" gradientUnits="userSpaceOnUse" gradientTransform="translate(193.832 94.0459) rotate(73.1539) scale(17.5734 17.3831)">
<stop stop-color="#D2CAFF"/>
<stop offset="1" stop-color="#715CFF"/>
</radialGradient>
<radialGradient id="paint5_radial_9473_126218" cx="0" cy="0" r="1" gradientUnits="userSpaceOnUse" gradientTransform="translate(147.52 68.4522) rotate(73.1539) scale(17.5734 17.3831)">
<stop stop-color="#D2CAFF"/>
<stop offset="1" stop-color="#715CFF"/>
</radialGradient>
<radialGradient id="paint6_radial_9473_126218" cx="0" cy="0" r="1" gradientUnits="userSpaceOnUse" gradientTransform="translate(147.52 164.737) rotate(73.1539) scale(17.5734 17.3831)">
<stop stop-color="#D2CAFF"/>
<stop offset="1" stop-color="#715CFF"/>
</radialGradient>
<radialGradient id="paint7_radial_9473_126218" cx="0" cy="0" r="1" gradientUnits="userSpaceOnUse" gradientTransform="translate(101.206 139.142) rotate(73.1539) scale(17.5734 17.3831)">
<stop stop-color="#D2CAFF"/>
<stop offset="1" stop-color="#715CFF"/>
</radialGradient>
<radialGradient id="paint8_radial_9473_126218" cx="0" cy="0" r="1" gradientUnits="userSpaceOnUse" gradientTransform="translate(193.832 139.142) rotate(73.1539) scale(17.5734 17.3831)">
<stop stop-color="#D2CAFF"/>
<stop offset="1" stop-color="#715CFF"/>
</radialGradient>
</defs>
</svg>
