<svg width="480" height="152" viewBox="0 0 480 152" fill="none" xmlns="http://www.w3.org/2000/svg">
    <g clip-path="url(#a)">
        <path d="M-109.988 840c98.337 0 98.325-70.454 196.662-70.454C185.012 769.546 185 840 283.337 840c98.338 0 98.338-70.454 196.663-70.454m-590 60.59c98.326 0 98.326-70.453 196.663-70.453 98.337 0 98.337 70.453 196.663 70.453 98.325 0 98.337-70.453 196.662-70.453M-110 820.261c98.326 0 98.326-70.454 196.663-70.454 98.337 0 98.337 70.454 196.663 70.454 98.325 0 98.337-70.454 196.662-70.454M-110 810.398c98.326 0 98.326-70.454 196.663-70.454 98.337 0 98.337 70.454 196.663 70.454 98.325 0 98.337-70.454 196.662-70.454M-110 800.534c98.326 0 98.326-70.454 196.663-70.454 98.337 0 98.337 70.454 196.663 70.454 98.325 0 98.337-70.454 196.662-70.454M-110 790.671c98.326 0 98.326-70.454 196.663-70.454 98.337 0 98.337 70.454 196.663 70.454 98.325 0 98.337-70.454 196.662-70.454M-110 780.795c98.326 0 98.326-70.454 196.663-70.454 98.337 0 98.337 70.454 196.663 70.454 98.325 0 98.337-70.454 196.662-70.454M-110 770.932c98.326 0 98.326-70.454 196.663-70.454 98.337 0 98.337 70.454 196.663 70.454 98.325 0 98.337-70.454 196.662-70.454M-110 761.068c98.326 0 98.326-70.454 196.663-70.454 98.337 0 98.337 70.454 196.663 70.454 98.325 0 98.337-70.454 196.662-70.454M-110 751.193c98.326 0 98.326-70.454 196.663-70.454 98.337 0 98.337 70.454 196.663 70.454 98.325 0 98.337-70.454 196.662-70.454M-110 741.329c98.326 0 98.326-70.453 196.663-70.453 98.337 0 98.337 70.453 196.663 70.453 98.325 0 98.337-70.453 196.662-70.453M-110 731.466c98.326 0 98.326-70.454 196.663-70.454 98.337 0 98.337 70.454 196.663 70.454 98.325 0 98.337-70.454 196.662-70.454M-110 721.602c98.326 0 98.326-70.454 196.663-70.454 98.337 0 98.337 70.454 196.663 70.454 98.325 0 98.337-70.454 196.662-70.454M-110 711.727c98.326 0 98.326-70.454 196.663-70.454 98.337 0 98.337 70.454 196.663 70.454 98.325 0 98.337-70.454 196.662-70.454M-110 701.863c98.326 0 98.326-70.453 196.663-70.453 98.337 0 98.337 70.453 196.663 70.453 98.325 0 98.337-70.453 196.662-70.453M-110 692c98.326 0 98.326-70.454 196.663-70.454C185 621.546 185 692 283.326 692c98.325 0 98.337-70.454 196.662-70.454M-110 682.136c98.326 0 98.326-70.453 196.663-70.453 98.337 0 98.337 70.453 196.663 70.453 98.325 0 98.337-70.453 196.662-70.453M-110 672.261c98.326 0 98.326-70.454 196.663-70.454 98.337 0 98.337 70.454 196.663 70.454 98.325 0 98.337-70.454 196.662-70.454M-110 662.398c98.326 0 98.326-70.454 196.663-70.454 98.337 0 98.337 70.454 196.663 70.454 98.325 0 98.337-70.454 196.662-70.454M-110 652.534c98.326 0 98.326-70.454 196.663-70.454 98.337 0 98.337 70.454 196.663 70.454 98.325 0 98.337-70.454 196.662-70.454M-110 642.659c98.326 0 98.326-70.454 196.663-70.454 98.337 0 98.337 70.454 196.663 70.454 98.325 0 98.337-70.454 196.662-70.454M-110 632.795c98.326 0 98.326-70.454 196.663-70.454 98.337 0 98.337 70.454 196.663 70.454 98.325 0 98.337-70.454 196.662-70.454M-110 622.932c98.326 0 98.326-70.454 196.663-70.454 98.337 0 98.337 70.454 196.663 70.454 98.325 0 98.337-70.454 196.662-70.454M-110 613.068c98.326 0 98.326-70.454 196.663-70.454 98.337 0 98.337 70.454 196.663 70.454 98.325 0 98.337-70.454 196.662-70.454M-110 603.193c98.326 0 98.326-70.454 196.663-70.454 98.337 0 98.337 70.454 196.663 70.454 98.325 0 98.337-70.454 196.662-70.454M-110 593.329c98.326 0 98.326-70.454 196.663-70.454 98.337 0 98.337 70.454 196.663 70.454 98.325 0 98.337-70.454 196.662-70.454M-110 583.466c98.326 0 98.326-70.454 196.663-70.454 98.337 0 98.337 70.454 196.663 70.454 98.325 0 98.337-70.454 196.662-70.454M-110 573.591c98.326 0 98.326-70.454 196.663-70.454 98.337 0 98.337 70.454 196.663 70.454 98.325 0 98.337-70.454 196.662-70.454M-110 563.727c98.326 0 98.326-70.454 196.663-70.454 98.337 0 98.337 70.454 196.663 70.454 98.325 0 98.337-70.454 196.662-70.454M-110 553.863c98.326 0 98.326-70.453 196.663-70.453 98.337 0 98.337 70.453 196.663 70.453 98.325 0 98.337-70.453 196.662-70.453M-110 544c98.326 0 98.326-70.454 196.663-70.454C185 473.546 185 544 283.326 544c98.325 0 98.337-70.454 196.662-70.454M-110 534.125c98.326 0 98.326-70.454 196.663-70.454 98.337 0 98.337 70.454 196.663 70.454 98.325 0 98.337-70.454 196.662-70.454M-110 524.261c98.326 0 98.326-70.454 196.663-70.454 98.337 0 98.337 70.454 196.663 70.454 98.325 0 98.337-70.454 196.662-70.454M-110 514.398c98.326 0 98.326-70.454 196.663-70.454 98.337 0 98.337 70.454 196.663 70.454 98.325 0 98.337-70.454 196.662-70.454M-110 504.522c98.326 0 98.326-70.454 196.663-70.454 98.337 0 98.337 70.454 196.663 70.454 98.325 0 98.337-70.454 196.662-70.454M-110 494.659c98.326 0 98.326-70.454 196.663-70.454 98.337 0 98.337 70.454 196.663 70.454 98.325 0 98.337-70.454 196.662-70.454M-110 484.795c98.326 0 98.326-70.454 196.663-70.454 98.337 0 98.337 70.454 196.663 70.454 98.325 0 98.337-70.454 196.662-70.454M-110 474.932c98.326 0 98.326-70.454 196.663-70.454 98.337 0 98.337 70.454 196.663 70.454 98.325 0 98.337-70.454 196.662-70.454M-110 465.056c98.326 0 98.326-70.453 196.663-70.453 98.337 0 98.337 70.453 196.663 70.453 98.325 0 98.337-70.453 196.662-70.453M-110 455.193c98.326 0 98.326-70.454 196.663-70.454 98.337 0 98.337 70.454 196.663 70.454 98.325 0 98.337-70.454 196.662-70.454M-110 445.329c98.326 0 98.326-70.454 196.663-70.454 98.337 0 98.337 70.454 196.663 70.454 98.325 0 98.337-70.454 196.662-70.454M-110 435.466c98.326 0 98.326-70.454 196.663-70.454 98.337 0 98.337 70.454 196.663 70.454 98.325 0 98.337-70.454 196.662-70.454M-110 425.59c98.326 0 98.326-70.453 196.663-70.453 98.337 0 98.337 70.453 196.663 70.453 98.325 0 98.337-70.453 196.662-70.453M-110 415.727c98.326 0 98.326-70.454 196.663-70.454 98.337 0 98.337 70.454 196.663 70.454 98.325 0 98.337-70.454 196.662-70.454M-110 405.863c98.326 0 98.326-70.453 196.663-70.453 98.337 0 98.337 70.453 196.663 70.453 98.325 0 98.337-70.453 196.662-70.453M-110 395.988c98.326 0 98.326-70.454 196.663-70.454 98.337 0 98.337 70.454 196.663 70.454 98.325 0 98.337-70.454 196.662-70.454M-110 386.125c98.326 0 98.326-70.454 196.663-70.454 98.337 0 98.337 70.454 196.663 70.454 98.325 0 98.337-70.454 196.662-70.454M-110 376.261c98.326 0 98.326-70.454 196.663-70.454 98.337 0 98.337 70.454 196.663 70.454 98.325 0 98.337-70.454 196.662-70.454M-110 366.398c98.326 0 98.326-70.454 196.663-70.454 98.337 0 98.337 70.454 196.663 70.454 98.325 0 98.337-70.454 196.662-70.454M-110 356.522c98.326 0 98.326-70.454 196.663-70.454 98.337 0 98.337 70.454 196.663 70.454 98.325 0 98.337-70.454 196.662-70.454M-110 346.659c98.326 0 98.326-70.454 196.663-70.454 98.337 0 98.337 70.454 196.663 70.454 98.325 0 98.337-70.454 196.662-70.454M-110 336.795c98.326 0 98.326-70.454 196.663-70.454 98.337 0 98.337 70.454 196.663 70.454 98.325 0 98.337-70.454 196.662-70.454M-110 326.92c98.326 0 98.326-70.454 196.663-70.454 98.337 0 98.337 70.454 196.663 70.454 98.325 0 98.337-70.454 196.662-70.454M-110 317.056c98.326 0 98.326-70.454 196.663-70.454 98.337 0 98.337 70.454 196.663 70.454 98.325 0 98.337-70.454 196.662-70.454M-110 307.193c98.326 0 98.326-70.454 196.663-70.454 98.337 0 98.337 70.454 196.663 70.454 98.325 0 98.337-70.454 196.662-70.454M-110 297.329c98.326 0 98.326-70.454 196.663-70.454 98.337 0 98.337 70.454 196.663 70.454 98.325 0 98.337-70.454 196.662-70.454M-110 287.454c98.326 0 98.326-70.454 196.663-70.454C185 217 185 287.454 283.326 287.454c98.325 0 98.337-70.454 196.662-70.454M-110 277.59c98.326 0 98.326-70.453 196.663-70.453 98.337 0 98.337 70.453 196.663 70.453 98.325 0 98.337-70.453 196.662-70.453M-110 267.727c98.326 0 98.326-70.454 196.663-70.454 98.337 0 98.337 70.454 196.663 70.454 98.325 0 98.337-70.454 196.662-70.454M-110 257.852c98.326 0 98.326-70.454 196.663-70.454 98.337 0 98.337 70.454 196.663 70.454 98.325 0 98.337-70.454 196.662-70.454M-110 247.988c98.326 0 98.326-70.454 196.663-70.454 98.337 0 98.337 70.454 196.663 70.454 98.325 0 98.337-70.454 196.662-70.454M-110 238.125c98.326 0 98.326-70.454 196.663-70.454 98.337 0 98.337 70.454 196.663 70.454 98.325 0 98.337-70.454 196.662-70.454M-110 228.261c98.326 0 98.326-70.454 196.663-70.454 98.337 0 98.337 70.454 196.663 70.454 98.325 0 98.337-70.454 196.662-70.454M-110 218.386c98.326 0 98.326-70.454 196.663-70.454 98.337 0 98.337 70.454 196.663 70.454 98.325 0 98.337-70.454 196.662-70.454M-110 208.522c98.326 0 98.326-70.454 196.663-70.454 98.337 0 98.337 70.454 196.663 70.454 98.325 0 98.337-70.454 196.662-70.454M-110 198.659c98.326 0 98.326-70.454 196.663-70.454 98.337 0 98.337 70.454 196.663 70.454 98.325 0 98.337-70.454 196.662-70.454M-110 188.783c98.326 0 98.326-70.454 196.663-70.454 98.337 0 98.337 70.454 196.663 70.454 98.325 0 98.337-70.454 196.662-70.454M-110 178.92c98.326 0 98.326-70.454 196.663-70.454 98.337 0 98.337 70.454 196.663 70.454 98.325 0 98.337-70.454 196.662-70.454M-110 169.056c98.326 0 98.326-70.454 196.663-70.454 98.337 0 98.337 70.454 196.663 70.454 98.325 0 98.337-70.454 196.662-70.454M-110 159.193c98.326 0 98.326-70.454 196.663-70.454 98.337 0 98.337 70.454 196.663 70.454 98.325 0 98.337-70.454 196.662-70.454M-110 149.317c98.326 0 98.326-70.453 196.663-70.453 98.337 0 98.337 70.453 196.663 70.453 98.325 0 98.337-70.453 196.662-70.453M-110 139.454C-11.674 139.454-11.674 69 86.663 69 185 69 185 139.454 283.326 139.454c98.325 0 98.337-70.454 196.662-70.454M-110 129.59c98.326 0 98.326-70.454 196.663-70.454C185 59.136 185 129.59 283.326 129.59c98.325 0 98.337-70.454 196.662-70.454M-110 119.727c98.326 0 98.326-70.454 196.663-70.454 98.337 0 98.337 70.454 196.663 70.454 98.325 0 98.337-70.454 196.662-70.454M-110 109.852c98.326 0 98.326-70.454 196.663-70.454 98.337 0 98.337 70.454 196.663 70.454 98.325 0 98.337-70.454 196.662-70.454M-110 99.988c98.326 0 98.326-70.454 196.663-70.454C185 29.534 185 99.988 283.326 99.988c98.325 0 98.337-70.454 196.662-70.454M-110 90.124c98.326 0 98.326-70.453 196.663-70.453C185 19.67 185 90.124 283.326 90.124c98.325 0 98.337-70.453 196.662-70.453M-110 80.249c98.326 0 98.326-70.454 196.663-70.454C185 9.795 185 80.25 283.326 80.25c98.325 0 98.337-70.454 196.662-70.454M-110 70.385c98.326 0 98.326-70.453 196.663-70.453C185-.068 185 70.386 283.326 70.386c98.325 0 98.337-70.454 196.662-70.454M-110 60.522c98.326 0 98.326-70.454 196.663-70.454C185-9.932 185 60.522 283.326 60.522c98.325 0 98.337-70.454 196.662-70.454M-110 50.658c98.326 0 98.326-70.453 196.663-70.453C185-19.795 185 50.659 283.326 50.659c98.325 0 98.337-70.454 196.662-70.454M-110 40.783c98.326 0 98.326-70.454 196.663-70.454C185-29.67 185 40.783 283.326 40.783c98.325 0 98.337-70.454 196.662-70.454M-110 30.92c98.326 0 98.326-70.453 196.663-70.453C185-39.534 185 30.92 283.326 30.92c98.325 0 98.337-70.454 196.662-70.454M-110 21.056c98.326 0 98.326-70.454 196.663-70.454C185-49.398 185 21.056 283.326 21.056c98.325 0 98.337-70.454 196.662-70.454M-110 11.181c98.326 0 98.326-70.454 196.663-70.454C185-59.273 185 11.181 283.326 11.181c98.325 0 98.337-70.454 196.662-70.454M-110 1.317c98.326 0 98.326-70.453 196.663-70.453C185-69.136 185 1.317 283.326 1.317c98.325 0 98.337-70.453 196.662-70.453M-110-8.546C-11.674-8.546-11.674-79 86.663-79 185-79 185-8.546 283.326-8.546 381.651-8.546 381.663-79 479.988-79M-110-18.41c98.326 0 98.326-70.454 196.663-70.454C185-88.864 185-18.41 283.326-18.41c98.325 0 98.337-70.454 196.662-70.454M-110-28.285c98.326 0 98.326-70.454 196.663-70.454C185-98.739 185-28.285 283.326-28.285c98.325 0 98.337-70.454 196.662-70.454M-110-38.149c98.326 0 98.326-70.453 196.663-70.453 98.337 0 98.337 70.454 196.663 70.454 98.325 0 98.337-70.454 196.662-70.454M-110-48.012c98.326 0 98.326-70.454 196.663-70.454 98.337 0 98.337 70.454 196.663 70.454 98.325 0 98.337-70.454 196.662-70.454M-110-57.887c98.326 0 98.326-70.454 196.663-70.454 98.337 0 98.337 70.454 196.663 70.454 98.325 0 98.337-70.454 196.662-70.454M-110-67.751c98.326 0 98.326-70.454 196.663-70.454 98.337 0 98.337 70.454 196.663 70.454 98.325 0 98.337-70.454 196.662-70.454M-110-77.615c98.326 0 98.326-70.453 196.663-70.453 98.337 0 98.337 70.454 196.663 70.454 98.325 0 98.337-70.454 196.662-70.454M-110-87.478c98.326 0 98.326-70.454 196.663-70.454 98.337 0 98.337 70.454 196.663 70.454 98.325 0 98.337-70.454 196.662-70.454M-110-97.353c98.326 0 98.326-70.454 196.663-70.454 98.337 0 98.337 70.454 196.663 70.454 98.325 0 98.337-70.454 196.662-70.454M-110-107.217c98.326 0 98.326-70.454 196.663-70.454 98.337 0 98.337 70.454 196.663 70.454 98.325 0 98.337-70.454 196.662-70.454M-110-117.08c98.326 0 98.326-70.454 196.663-70.454 98.337 0 98.337 70.454 196.663 70.454 98.325 0 98.337-70.454 196.662-70.454M-110-126.944c98.326 0 98.326-70.454 196.663-70.454 98.337 0 98.337 70.454 196.663 70.454 98.325 0 98.337-70.454 196.662-70.454M-110-136.819c98.326 0 98.326-70.454 196.663-70.454 98.337 0 98.337 70.454 196.663 70.454 98.325 0 98.337-70.454 196.662-70.454M-110-146.683c98.326 0 98.326-70.454 196.663-70.454 98.337 0 98.337 70.454 196.663 70.454 98.325 0 98.337-70.454 196.662-70.454M-110-156.546c98.326 0 98.326-70.454 196.663-70.454C185-227 185-156.546 283.326-156.546c98.325 0 98.337-70.454 196.662-70.454" stroke="url(#b)" stroke-miterlimit="10"/>
    </g>
    <defs>
        <linearGradient id="b" x1="356" y1="194" x2="-116.68" y2="-51.118" gradientUnits="userSpaceOnUse">
            <stop stop-color="#fff" stop-opacity=".18"/>
            <stop offset="1" stop-color="#fff" stop-opacity=".04"/>
        </linearGradient>
        <clipPath id="a">
            <path fill="#fff" d="M0 0h480v152H0z"/>
        </clipPath>
    </defs>
</svg>
