<svg width="32" height="32" viewBox="0 0 32 32" fill="none" xmlns="http://www.w3.org/2000/svg">
<path d="M27.5303 3.56555L17.5366 10.988L19.3847 6.60887L27.5303 3.56555Z" fill="#E2761B" stroke="#E2761B" stroke-width="0.100439" stroke-linecap="round" stroke-linejoin="round"/>
<path d="M4.45947 3.56543L14.3728 11.0582L12.6152 6.60874L4.45947 3.56543Z" fill="#E4761B" stroke="#E4761B" stroke-width="0.100439" stroke-linecap="round" stroke-linejoin="round"/>
<path d="M23.9346 20.7708L21.2729 24.8486L26.9679 26.4154L28.605 20.8611L23.9346 20.7708Z" fill="#E4761B" stroke="#E4761B" stroke-width="0.100439" stroke-linecap="round" stroke-linejoin="round"/>
<path d="M3.40479 20.8611L5.0319 26.4154L10.7268 24.8486L8.06517 20.7708L3.40479 20.8611Z" fill="#E4761B" stroke="#E4761B" stroke-width="0.100439" stroke-linecap="round" stroke-linejoin="round"/>
<path d="M10.4053 13.8807L8.81836 16.2812L14.4731 16.5323L14.2722 10.4557L10.4053 13.8807Z" fill="#E4761B" stroke="#E4761B" stroke-width="0.100439" stroke-linecap="round" stroke-linejoin="round"/>
<path d="M21.5843 13.8805L17.6672 10.3853L17.5366 16.5321L23.1813 16.281L21.5843 13.8805Z" fill="#E4761B" stroke="#E4761B" stroke-width="0.100439" stroke-linecap="round" stroke-linejoin="round"/>
<path d="M10.7271 24.8486L14.1219 23.1914L11.1891 20.9014L10.7271 24.8486Z" fill="#E4761B" stroke="#E4761B" stroke-width="0.100439" stroke-linecap="round" stroke-linejoin="round"/>
<path d="M17.8682 23.1914L21.2731 24.8486L20.801 20.9014L17.8682 23.1914Z" fill="#E4761B" stroke="#E4761B" stroke-width="0.100439" stroke-linecap="round" stroke-linejoin="round"/>
<path d="M21.2731 24.8487L17.8682 23.1914L18.1394 25.4111L18.1092 26.3452L21.2731 24.8487Z" fill="#D7C1B3" stroke="#D7C1B3" stroke-width="0.100439" stroke-linecap="round" stroke-linejoin="round"/>
<path d="M10.7271 24.8487L13.8909 26.3452L13.8708 25.4111L14.1219 23.1914L10.7271 24.8487Z" fill="#D7C1B3" stroke="#D7C1B3" stroke-width="0.100439" stroke-linecap="round" stroke-linejoin="round"/>
<path d="M13.9408 19.435L11.1084 18.6014L13.1071 17.6874L13.9408 19.435Z" fill="#233447" stroke="#233447" stroke-width="0.100439" stroke-linecap="round" stroke-linejoin="round"/>
<path d="M18.0488 19.435L18.8825 17.6874L20.8913 18.6014L18.0488 19.435Z" fill="#233447" stroke="#233447" stroke-width="0.100439" stroke-linecap="round" stroke-linejoin="round"/>
<path d="M10.7271 24.8487L11.2092 20.7709L8.06543 20.8613L10.7271 24.8487Z" fill="#CD6116" stroke="#CD6116" stroke-width="0.100439" stroke-linecap="round" stroke-linejoin="round"/>
<path d="M20.791 20.7709L21.2731 24.8487L23.9348 20.8613L20.791 20.7709Z" fill="#CD6116" stroke="#CD6116" stroke-width="0.100439" stroke-linecap="round" stroke-linejoin="round"/>
<path d="M23.1813 16.2812L17.5366 16.5323L18.0589 19.435L18.8926 17.6874L20.9013 18.6014L23.1813 16.2812Z" fill="#CD6116" stroke="#CD6116" stroke-width="0.100439" stroke-linecap="round" stroke-linejoin="round"/>
<path d="M11.1089 18.6014L13.1177 17.6874L13.9413 19.435L14.4736 16.5323L8.81885 16.2812L11.1089 18.6014Z" fill="#CD6116" stroke="#CD6116" stroke-width="0.100439" stroke-linecap="round" stroke-linejoin="round"/>
<path d="M8.81836 16.2812L11.1887 20.9015L11.1084 18.6014L8.81836 16.2812Z" fill="#E4751F" stroke="#E4751F" stroke-width="0.100439" stroke-linecap="round" stroke-linejoin="round"/>
<path d="M20.9012 18.6014L20.8008 20.9015L23.1812 16.2812L20.9012 18.6014Z" fill="#E4751F" stroke="#E4751F" stroke-width="0.100439" stroke-linecap="round" stroke-linejoin="round"/>
<path d="M14.4732 16.5323L13.9409 19.435L14.6038 22.86L14.7545 18.3503L14.4732 16.5323Z" fill="#E4751F" stroke="#E4751F" stroke-width="0.100439" stroke-linecap="round" stroke-linejoin="round"/>
<path d="M17.5363 16.5323L17.2651 18.3403L17.3857 22.86L18.0586 19.435L17.5363 16.5323Z" fill="#E4751F" stroke="#E4751F" stroke-width="0.100439" stroke-linecap="round" stroke-linejoin="round"/>
<path d="M18.0592 19.435L17.3862 22.86L17.8683 23.1914L20.8012 20.9014L20.9016 18.6013L18.0592 19.435Z" fill="#F6851B" stroke="#F6851B" stroke-width="0.100439" stroke-linecap="round" stroke-linejoin="round"/>
<path d="M11.1084 18.6013L11.1888 20.9014L14.1216 23.1914L14.6037 22.86L13.9408 19.435L11.1084 18.6013Z" fill="#F6851B" stroke="#F6851B" stroke-width="0.100439" stroke-linecap="round" stroke-linejoin="round"/>
<path d="M18.1093 26.3453L18.1395 25.4112L17.8884 25.1902H14.1018L13.8708 25.4112L13.8909 26.3453L10.7271 24.8488L11.8319 25.7527L14.0717 27.3095H17.9185L20.1684 25.7527L21.2732 24.8488L18.1093 26.3453Z" fill="#C0AD9E" stroke="#C0AD9E" stroke-width="0.100439" stroke-linecap="round" stroke-linejoin="round"/>
<path d="M17.8681 23.1914L17.386 22.86H14.6038L14.1217 23.1914L13.8706 25.4111L14.1016 25.1902H17.8882L18.1393 25.4111L17.8681 23.1914Z" fill="#161616" stroke="#161616" stroke-width="0.100439" stroke-linecap="round" stroke-linejoin="round"/>
<path d="M27.9523 11.47L28.806 7.37208L27.5304 3.56543L17.8682 10.7368L21.5844 13.8806L26.8374 15.4173L28.0025 14.0613L27.5003 13.6998L28.3038 12.9666L27.6811 12.4845L28.4846 11.8718L27.9523 11.47Z" fill="#763D16" stroke="#763D16" stroke-width="0.100439" stroke-linecap="round" stroke-linejoin="round"/>
<path d="M3.19385 7.37221L4.04758 11.4701L3.50521 11.8719L4.30873 12.4846L3.69604 12.9667L4.49956 13.6999L3.99736 14.0615L5.15242 15.4174L10.4054 13.8807L14.1217 10.7369L4.45938 3.56555L3.19385 7.37221Z" fill="#763D16" stroke="#763D16" stroke-width="0.100439" stroke-linecap="round" stroke-linejoin="round"/>
<path d="M26.8372 15.4175L21.5842 13.8807L23.1812 16.2812L20.8008 20.9015L23.9345 20.8613H28.6049L26.8372 15.4175Z" fill="#F6851B" stroke="#F6851B" stroke-width="0.100439" stroke-linecap="round" stroke-linejoin="round"/>
<path d="M10.4054 13.8807L5.15243 15.4175L3.40479 20.8613H8.06517L11.1888 20.9015L8.81847 16.2812L10.4054 13.8807Z" fill="#F6851B" stroke="#F6851B" stroke-width="0.100439" stroke-linecap="round" stroke-linejoin="round"/>
<path d="M17.5368 16.5323L17.8682 10.7369L19.3949 6.60889H12.6152L14.1218 10.7369L14.4734 16.5323L14.5939 18.3603L14.6039 22.86H17.3861L17.4062 18.3603L17.5368 16.5323Z" fill="#F6851B" stroke="#F6851B" stroke-width="0.100439" stroke-linecap="round" stroke-linejoin="round"/>
</svg>