 <svg width="22" height="22" viewBox="0 0 35 35" fill="none" xmlns="http://www.w3.org/2000/svg">
  <g clip-path="url(#clip0_3_8308)">
    <path
      d="M6.55566 10.0222C11.7778 4.90926 20.2447 4.90926 25.4668 10.0222L26.0953 10.6376C26.3564 10.8932 26.3564 11.3077 26.0953 11.5633L23.9454 13.6683C23.8148 13.7962 23.6031 13.7962 23.4726 13.6683L22.6077 12.8215C18.9646 9.25462 13.0579 9.25462 9.41479 12.8215L8.48857 13.7284C8.35802 13.8562 8.14635 13.8562 8.01579 13.7284L5.86583 11.6234C5.60472 11.3677 5.60472 10.9533 5.86583 10.6976L6.55566 10.0222ZM29.9132 14.3756L31.8266 16.249C32.0877 16.5047 32.0877 16.9191 31.8266 17.1748L23.1987 25.6224C22.9375 25.8781 22.5142 25.8781 22.2531 25.6224C22.2531 25.6224 22.2531 25.6224 22.2531 25.6224L16.1295 19.6269C16.0642 19.563 15.9584 19.563 15.8931 19.6269C15.8931 19.6269 15.8931 19.6269 15.8931 19.6269L9.76961 25.6224C9.5085 25.8781 9.08516 25.8781 8.82405 25.6224C8.82405 25.6224 8.82405 25.6224 8.82405 25.6224L0.195831 17.1747C-0.0652772 16.919 -0.0652772 16.5045 0.195831 16.2489L2.10931 14.3754C2.37041 14.1198 2.79376 14.1198 3.05486 14.3754L9.17856 20.3711C9.24384 20.435 9.34968 20.435 9.41495 20.3711C9.41495 20.3711 9.41496 20.3711 9.41496 20.3711L15.5384 14.3754C15.7995 14.1198 16.2228 14.1198 16.4839 14.3754C16.4839 14.3754 16.4839 14.3754 16.4839 14.3754L22.6076 20.3711C22.6729 20.435 22.7787 20.435 22.844 20.3711L28.9676 14.3756C29.2287 14.1199 29.652 14.1199 29.9132 14.3756Z"
      fill="#3B99FC"
    />
  </g>
  <defs>
    <clipPath id="clip0_3_8308">
      <rect width="36" height="36" fill="white" />
    </clipPath>
  </defs>
</svg>
