<svg width="16" height="16" viewBox="0 0 16 16" fill="none" xmlns="http://www.w3.org/2000/svg">
<g clip-path="url(#clip0_10150_43234)">
<path d="M0 2C0 0.895431 0.895431 0 2 0H14C15.1046 0 16 0.895431 16 2V14C16 15.1046 15.1046 16 14 16H2C0.895431 16 0 15.1046 0 14V2Z" fill="black"/>
<path d="M4.49041 5.76609C6.42872 3.86833 9.57133 3.86833 11.5096 5.76609L11.7429 5.99449C11.8398 6.08938 11.8398 6.24323 11.7429 6.33811L10.9449 7.11942C10.8965 7.16686 10.8179 7.16686 10.7694 7.11942L10.4484 6.80512C9.09621 5.48119 6.90384 5.48119 5.55163 6.80512L5.20785 7.14171C5.15939 7.18915 5.08082 7.18915 5.03237 7.14171L4.23437 6.3604C4.13745 6.26552 4.13745 6.11167 4.23437 6.01678L4.49041 5.76609ZM13.16 7.38192L13.8702 8.07729C13.9671 8.17217 13.9671 8.32602 13.8702 8.4209L10.6678 11.5564C10.5708 11.6513 10.4137 11.6513 10.3168 11.5564V11.5564L8.04391 9.33105C8.01968 9.30733 7.9804 9.30733 7.95617 9.33105V9.33105L5.68333 11.5564C5.58641 11.6513 5.42928 11.6513 5.33237 11.5564V11.5564L2.12985 8.42087C2.03293 8.32598 2.03293 8.17213 2.12985 8.07724L2.84007 7.38188C2.93698 7.28699 3.09411 7.28699 3.19103 7.38188L5.46395 9.60726C5.48818 9.63098 5.52746 9.63098 5.55169 9.60726V9.60726L7.8245 7.38188C7.92141 7.28699 8.07854 7.28699 8.17546 7.38187V7.38187L10.4484 9.60726C10.4726 9.63098 10.5119 9.63098 10.5361 9.60726L12.809 7.38192C12.9059 7.28703 13.0631 7.28703 13.16 7.38192Z" fill="white"/>
<path d="M11.6845 5.58746C9.64904 3.59454 6.351 3.59454 4.31551 5.58746L4.05947 5.83815C3.86242 6.03108 3.86242 6.34611 4.05947 6.53904L4.85747 7.32034C5.00311 7.46294 5.2371 7.46294 5.38275 7.32034L5.72653 6.98375C6.98155 5.75498 9.01849 5.75498 10.2735 6.98375L10.5945 7.29806C10.7402 7.44065 10.9742 7.44065 11.1198 7.29806L11.9178 6.51675C12.1149 6.32382 12.1149 6.00879 11.9178 5.81586L11.6845 5.58746ZM5.15747 11.735L5.33237 11.5564L5.15747 11.735C5.35157 11.9251 5.66413 11.9251 5.85823 11.735L8.00004 9.63797L10.1419 11.735C10.336 11.9251 10.6486 11.9251 10.8427 11.735L14.0451 8.59954C14.2421 8.40661 14.2421 8.09158 14.0451 7.89865L13.3349 7.20328C13.1408 7.01324 12.8282 7.01324 12.6341 7.20328L10.4923 9.30034L8.35036 7.20324L8.17546 7.38187L8.35036 7.20323C8.15625 7.0132 7.84369 7.0132 7.6496 7.20325L5.50782 9.30034L3.36593 7.20324C3.17183 7.0132 2.85927 7.0132 2.66517 7.20324L1.95495 7.89861C1.7579 8.09154 1.7579 8.40657 1.95495 8.5995L5.15747 11.735Z" stroke="#141414" stroke-opacity="0.1" stroke-width="0.5"/>
</g>
<defs>
<clipPath id="clip0_10150_43234">
<rect width="16" height="16" fill="white"/>
</clipPath>
</defs>
</svg>
